<?xml version="1.0" encoding="UTF-8" standalone="no" ?>
<!DOCTYPE svg PUBLIC "-//W3C//DTD SVG 1.1//EN" "http://www.w3.org/Graphics/SVG/1.1/DTD/svg11.dtd">
<svg xmlns="http://www.w3.org/2000/svg" xmlns:xlink="http://www.w3.org/1999/xlink" version="1.1" width="1080" height="1080" viewBox="0 0 1080 1080" xml:space="preserve">
<desc>Created with Fabric.js 5.2.4</desc>
<defs>
</defs>
<g transform="matrix(1 0 0 1 540 540)" id="658971ea-9480-4f8b-961a-8f486363f92d"  >
<rect style="stroke: none; stroke-width: 1; stroke-dasharray: none; stroke-linecap: butt; stroke-dashoffset: 0; stroke-linejoin: miter; stroke-miterlimit: 4; fill: rgb(255,255,255); fill-rule: nonzero; opacity: 1; visibility: hidden;" vector-effect="non-scaling-stroke"  x="-540" y="-540" rx="0" ry="0" width="1080" height="1080" />
</g>
<g transform="matrix(1 0 0 1 540 540)" id="d8f8f81b-6793-41c8-b570-e130e77e65f4"  >
</g>
<g transform="matrix(2.4 0 0 2.4 540 540)"  >
<g style=""   >
		<g transform="matrix(1 0 0 1 -138.64 -30.47)"  >
<path style="stroke: none; stroke-width: 1; stroke-dasharray: none; stroke-linecap: butt; stroke-dashoffset: 0; stroke-linejoin: miter; stroke-miterlimit: 4; fill: rgb(0,146,71); fill-rule: nonzero; opacity: 1;" vector-effect="non-scaling-stroke"  transform=" translate(-86.36, -105.53)" d="M 137.78 142.987 C 137.622 142.634 137.442 142.291 137.239 141.962 C 137.074 141.612 136.889 141.272 136.685 140.943 C 136.525 140.592 136.344 140.249 136.144 139.918 C 135.983 139.567 135.798 139.226 135.591 138.899 C 135.428 138.548 135.242 138.202 135.05 137.874 C 134.895 137.522 134.713 137.183 134.506 136.858 C 134.342 136.505 134.159 136.162 133.956 135.83 C 133.801 135.478 133.619 135.139 133.412 134.814 C 133.247 134.465 133.062 134.125 132.858 133.796 C 132.324 132.664 131.606 131.627 130.731 130.723 L 156.892 51.4234 C 157.031 51.0012 156.895 50.7314 157.034 50.3092 C 157.23 49.8937 157.299 49.436 157.234 48.9908 C 157.303 48.7797 157.237 48.2988 157.306 48.0877 C 157.331 47.6227 157.323 47.1576 157.283 46.6955 C 157.133 46.3991 157.083 46.062 157.141 45.731 C 157.019 45.2817 156.845 44.8484 156.623 44.4394 C 156.468 44.1641 156.398 43.6928 156.255 43.4107 L 155.672 42.3206 C 155.713 42.1959 155.59 42.0141 155.43 41.8843 L 155.148 41.342 L 155.099 41.3281 C 155.143 41.1937 155.027 41.0243 154.87 40.8849 L 154.575 40.3495 C 154.616 40.2247 154.494 40.0429 154.336 39.9035 L 154.051 39.3709 C 154.095 39.2365 153.97 39.0643 153.812 38.9249 L 153.53 38.3827 C 153.571 38.2579 153.449 38.0761 153.291 37.9367 L 152.996 37.4013 L 153.012 37.3533 C 153.053 37.2286 152.928 37.0564 152.77 36.917 L 152.488 36.3747 L 152.439 36.3607 C 152.48 36.236 152.368 36.057 152.21 35.9176 L 151.915 35.3821 L 151.931 35.3342 C 151.972 35.2094 151.847 35.0372 151.689 34.8978 L 151.407 34.3556 L 151.358 34.3416 C 151.402 34.2073 151.286 34.0378 151.129 33.8984 L 150.834 33.363 C 150.875 33.2383 150.753 33.0565 150.592 32.9266 L 150.274 32.3321 C 150.343 32.121 149.991 31.7898 149.766 31.7256 C 149.776 31.6987 149.781 31.6702 149.78 31.6419 C 149.778 31.6136 149.771 31.5859 149.758 31.5607 C 149.746 31.5355 149.728 31.5132 149.706 31.4952 C 149.684 31.4771 149.658 31.4638 149.63 31.4559 C 149.265 31.1315 149.113 30.8466 148.761 30.5155 C 148.477 30.1466 148.214 29.7632 147.972 29.3668 C 147.756 29.3054 147.391 28.981 147.176 28.9196 C 146.814 28.5856 146.168 28.4014 146.025 28.1193 C 145.644 28.0431 145.294 27.8673 145.014 27.6107 L 141.369 26.5722 C 141.06 26.6602 140.732 26.6446 140.44 26.5281 C 139.72 26.5645 139.299 26.4445 139.004 26.5914 C 138.583 26.4713 138.301 26.6114 137.933 26.979 C 137.469 26.8585 136.975 26.8748 136.513 27.026 C 136.238 27.1784 135.724 27.2735 135.442 27.4136 C 135.054 27.6395 134.611 27.7538 134.165 27.7427 C 133.9 28.015 133.586 28.2388 133.24 28.4028 C 132.955 28.5525 132.888 28.754 132.682 28.6954 L 21.0061 102.495 C 18.3861 104.177 16.5048 106.755 15.7529 109.694 C 15.0009 112.633 15.4361 115.707 16.9679 118.277 C 17.1241 118.639 17.3105 118.987 17.5251 119.318 C 17.6758 119.677 17.86 120.021 18.0756 120.346 C 18.2318 120.708 18.4181 121.056 18.6327 121.386 C 18.7856 121.747 18.9686 122.094 19.1801 122.424 C 19.3374 122.783 19.5248 123.128 19.7404 123.455 C 19.8932 123.816 20.0763 124.163 20.2877 124.493 C 20.4451 124.851 20.6325 125.196 20.848 125.524 C 21.0009 125.884 21.1839 126.231 21.3954 126.562 C 21.5527 126.92 21.7401 127.265 21.9557 127.593 C 22.2763 128.301 22.6724 128.973 23.1377 129.598 C 24.5888 131.891 26.9008 133.537 29.6048 134.202 L 89.1002 151.153 L 86.4695 159.127 C 85.9164 160.745 85.7188 162.448 85.8898 164.125 C 86.0607 165.802 86.5963 167.415 87.4614 168.857 C 87.6275 169.198 87.8066 169.533 87.992 169.848 C 88.1515 170.192 88.3309 170.527 88.5293 170.851 C 88.6954 171.193 88.8745 171.527 89.0697 171.845 C 89.2292 172.19 89.4085 172.525 89.6069 172.849 C 89.773 173.19 89.9521 173.524 90.1442 173.852 C 90.3004 174.198 90.4798 174.533 90.6814 174.855 C 90.8377 175.194 91.0168 175.528 91.2089 175.856 C 91.3684 176.2 91.5477 176.535 91.7461 176.859 C 91.9056 177.188 92.0847 177.523 92.2767 177.85 C 93.3299 180.025 95.043 181.822 97.193 183.007 C 99.3429 184.193 101.83 184.711 104.33 184.496 C 106.831 184.281 109.228 183.341 111.211 181.799 C 113.194 180.258 114.669 178.186 115.446 175.854 L 120.644 160.098 L 122.799 160.712 C 124.36 161.184 126.01 161.348 127.655 161.193 C 129.3 161.038 130.907 160.567 132.381 159.809 C 133.855 159.051 135.168 158.02 136.242 156.776 C 137.317 155.532 138.132 154.101 138.64 152.565 C 139.189 150.978 139.396 149.307 139.248 147.659 C 139.1 146.01 138.6 144.419 137.78 142.987 Z M 110.604 85.9054 L 99.3847 119.913 L 71.4007 111.94 L 110.604 85.9054 Z" stroke-linecap="round" />
</g>
		<g transform="matrix(1 0 0 1 -138.64 -30.47)"  >
<path style="stroke: none; stroke-width: 1; stroke-dasharray: none; stroke-linecap: butt; stroke-dashoffset: 0; stroke-linejoin: miter; stroke-miterlimit: 4; fill: rgb(0,0,0); fill-rule: nonzero; opacity: 0.1;" vector-effect="non-scaling-stroke"  transform=" translate(-86.36, -105.53)" d="M 137.78 142.987 C 137.622 142.634 137.442 142.291 137.239 141.962 C 137.074 141.612 136.889 141.272 136.685 140.943 C 136.525 140.592 136.344 140.249 136.144 139.918 C 135.983 139.567 135.798 139.226 135.591 138.899 C 135.428 138.548 135.242 138.202 135.05 137.874 C 134.895 137.522 134.713 137.183 134.506 136.858 C 134.342 136.505 134.159 136.162 133.956 135.83 C 133.801 135.478 133.619 135.139 133.412 134.814 C 133.247 134.465 133.062 134.125 132.858 133.796 C 132.324 132.664 131.606 131.627 130.731 130.723 L 156.892 51.4234 C 157.031 51.0012 156.895 50.7314 157.034 50.3092 C 157.23 49.8937 157.299 49.436 157.234 48.9908 C 157.303 48.7797 157.237 48.2988 157.306 48.0877 C 157.331 47.6227 157.323 47.1576 157.283 46.6955 C 157.133 46.3991 157.083 46.062 157.141 45.731 C 157.019 45.2817 156.845 44.8484 156.623 44.4394 C 156.468 44.1641 156.398 43.6928 156.255 43.4107 L 155.672 42.3206 C 155.713 42.1959 155.59 42.0141 155.43 41.8843 L 155.148 41.342 L 155.099 41.3281 C 155.143 41.1937 155.027 41.0243 154.87 40.8849 L 154.575 40.3495 C 154.616 40.2247 154.494 40.0429 154.336 39.9035 L 154.051 39.3709 C 154.095 39.2365 153.97 39.0643 153.812 38.9249 L 153.53 38.3827 C 153.571 38.2579 153.449 38.0761 153.291 37.9367 L 152.996 37.4013 L 153.012 37.3533 C 153.053 37.2286 152.928 37.0564 152.77 36.917 L 152.488 36.3747 L 152.439 36.3607 C 152.48 36.236 152.368 36.057 152.21 35.9176 L 151.915 35.3821 L 151.931 35.3342 C 151.972 35.2094 151.847 35.0372 151.689 34.8978 L 151.407 34.3556 L 151.358 34.3416 C 151.402 34.2073 151.286 34.0378 151.129 33.8984 L 150.834 33.363 C 150.875 33.2383 150.753 33.0565 150.592 32.9266 L 150.274 32.3321 C 150.343 32.121 149.991 31.7898 149.766 31.7256 C 149.776 31.6987 149.781 31.6702 149.78 31.6419 C 149.778 31.6136 149.771 31.5859 149.758 31.5607 C 149.746 31.5355 149.728 31.5132 149.706 31.4952 C 149.684 31.4771 149.658 31.4638 149.63 31.4559 C 149.265 31.1315 149.113 30.8466 148.761 30.5155 C 148.477 30.1466 148.214 29.7632 147.972 29.3668 C 147.756 29.3054 147.391 28.981 147.176 28.9196 C 146.814 28.5856 146.168 28.4014 146.025 28.1193 C 145.644 28.0431 145.294 27.8673 145.014 27.6107 L 141.369 26.5722 C 141.06 26.6602 140.732 26.6446 140.44 26.5281 C 139.72 26.5645 139.299 26.4445 139.004 26.5914 C 138.583 26.4713 138.301 26.6114 137.933 26.979 C 137.469 26.8585 136.975 26.8748 136.513 27.026 C 136.238 27.1784 135.724 27.2735 135.442 27.4136 C 135.054 27.6395 134.611 27.7538 134.165 27.7427 C 133.9 28.015 133.586 28.2388 133.24 28.4028 C 132.955 28.5525 132.888 28.754 132.682 28.6954 L 21.0061 102.495 C 18.3861 104.177 16.5048 106.755 15.7529 109.694 C 15.0009 112.633 15.4361 115.707 16.9679 118.277 C 17.1241 118.639 17.3105 118.987 17.5251 119.318 C 17.6758 119.677 17.86 120.021 18.0756 120.346 C 18.2318 120.708 18.4181 121.056 18.6327 121.386 C 18.7856 121.747 18.9686 122.094 19.1801 122.424 C 19.3374 122.783 19.5248 123.128 19.7404 123.455 C 19.8932 123.816 20.0763 124.163 20.2877 124.493 C 20.4451 124.851 20.6325 125.196 20.848 125.524 C 21.0009 125.884 21.1839 126.231 21.3954 126.562 C 21.5527 126.92 21.7401 127.265 21.9557 127.593 C 22.2763 128.301 22.6724 128.973 23.1377 129.598 C 24.5888 131.891 26.9008 133.537 29.6048 134.202 L 89.1002 151.153 L 86.4695 159.127 C 85.9164 160.745 85.7188 162.448 85.8898 164.125 C 86.0607 165.802 86.5963 167.415 87.4614 168.857 C 87.6275 169.198 87.8066 169.533 87.992 169.848 C 88.1515 170.192 88.3309 170.527 88.5293 170.851 C 88.6954 171.193 88.8745 171.527 89.0697 171.845 C 89.2292 172.19 89.4085 172.525 89.6069 172.849 C 89.773 173.19 89.9521 173.524 90.1442 173.852 C 90.3004 174.198 90.4798 174.533 90.6814 174.855 C 90.8377 175.194 91.0168 175.528 91.2089 175.856 C 91.3684 176.2 91.5477 176.535 91.7461 176.859 C 91.9056 177.188 92.0847 177.523 92.2767 177.85 C 93.3299 180.025 95.043 181.822 97.193 183.007 C 99.3429 184.193 101.83 184.711 104.33 184.496 C 106.831 184.281 109.228 183.341 111.211 181.799 C 113.194 180.258 114.669 178.186 115.446 175.854 L 120.644 160.098 L 122.799 160.712 C 124.36 161.184 126.01 161.348 127.655 161.193 C 129.3 161.038 130.907 160.567 132.381 159.809 C 133.855 159.051 135.168 158.02 136.242 156.776 C 137.317 155.532 138.132 154.101 138.64 152.565 C 139.189 150.978 139.396 149.307 139.248 147.659 C 139.1 146.01 138.6 144.419 137.78 142.987 Z M 110.604 85.9054 L 99.3847 119.913 L 71.4007 111.94 L 110.604 85.9054 Z" stroke-linecap="round" />
</g>
		<g transform="matrix(1 0 0 1 -141.56 -35.7)"  >
<path style="stroke: none; stroke-width: 1; stroke-dasharray: none; stroke-linecap: butt; stroke-dashoffset: 0; stroke-linejoin: miter; stroke-miterlimit: 4; fill: rgb(0,146,71); fill-rule: nonzero; opacity: 1;" vector-effect="non-scaling-stroke"  transform=" translate(-83.44, -100.3)" d="M 133.242 142.268 C 132.734 143.805 131.918 145.237 130.843 146.481 C 129.768 147.725 128.455 148.756 126.98 149.514 C 125.505 150.272 123.897 150.742 122.252 150.896 C 120.606 151.05 118.955 150.885 117.395 150.411 L 115.249 149.8 L 109.973 165.794 C 108.961 168.863 106.745 171.451 103.813 172.99 C 100.882 174.529 97.4746 174.892 94.3411 173.999 C 91.2076 173.106 88.6046 171.031 87.1048 168.229 C 85.605 165.428 85.3311 162.13 86.3434 159.062 L 91.6197 143.067 L 23.9542 123.788 C 21.2696 123.12 18.9762 121.48 17.5371 119.199 C 16.5975 117.932 15.938 116.485 15.5983 114.947 C 15.2587 113.408 15.246 111.809 15.561 110.247 C 15.876 108.685 16.5122 107.192 17.4312 105.857 C 18.3502 104.523 19.5329 103.376 20.9078 102.484 L 132.298 28.3027 C 132.513 28.3641 132.58 28.1626 132.865 28.0129 C 133.211 27.849 133.524 27.6252 133.79 27.3528 C 134.238 27.3612 134.684 27.2482 135.076 27.0266 C 135.352 26.8742 135.852 26.7859 136.138 26.6363 C 136.603 26.4791 137.102 26.4604 137.57 26.5825 C 137.922 26.2314 138.207 26.0817 138.638 26.2045 C 138.913 26.0521 139.344 26.1749 140.06 26.148 C 140.354 26.2662 140.684 26.2784 140.992 26.1826 L 144.646 27.2237 C 144.917 27.4883 145.264 27.6676 145.645 27.739 C 145.79 28.0115 146.437 28.1957 146.798 28.5296 C 147.014 28.591 147.375 28.9249 147.591 28.9863 C 147.876 29.5189 148.238 29.8528 148.383 30.1253 C 148.745 30.4592 148.891 30.7317 149.252 31.0656 C 149.309 31.0819 149.357 31.1197 149.384 31.1708 C 149.412 31.2219 149.417 31.2821 149.398 31.3381 C 149.614 31.3995 149.975 31.7334 149.905 31.9445 L 150.479 33.0316 C 150.625 33.3041 150.704 33.7781 150.85 34.0506 C 151.074 34.4616 151.247 34.8983 151.364 35.3516 C 151.313 35.6844 151.367 36.0214 151.517 36.3187 C 151.56 36.7755 151.562 37.2362 151.523 37.6956 C 151.454 37.9067 151.53 38.3903 151.46 38.6013 C 151.525 39.0499 151.455 39.5108 151.258 39.9292 C 151.122 40.3418 151.268 40.6143 151.129 41.0364 L 122.883 126.658 L 125.029 127.269 C 128.192 128.154 130.83 130.226 132.369 133.036 C 133.907 135.845 134.221 139.163 133.242 142.268 Z M 116.396 67.9615 L 56.5111 107.747 L 99.2539 119.925 L 116.396 67.9615 Z" stroke-linecap="round" />
</g>
		<g transform="matrix(1 0 0 1 2.14 0.78)"  >
<path style="stroke: none; stroke-width: 1; stroke-dasharray: none; stroke-linecap: butt; stroke-dashoffset: 0; stroke-linejoin: miter; stroke-miterlimit: 4; fill: rgb(0,146,71); fill-rule: nonzero; opacity: 1;" vector-effect="non-scaling-stroke"  transform=" translate(-227.14, -136.78)" d="M 286.37 103.016 C 285.138 98.7125 283.424 94.5657 281.259 90.6481 C 281.184 90.4893 281.099 90.3354 281.004 90.1872 L 280.931 90.051 C 280.868 89.9176 280.805 89.7842 280.729 89.6576 C 280.55 89.2918 280.345 88.9396 280.152 88.5806 L 280.096 88.4911 L 279.897 88.1197 C 279.876 88.0727 279.852 88.0272 279.824 87.9835 C 279.761 87.8501 279.698 87.7167 279.622 87.5902 C 279.443 87.2243 279.238 86.8721 279.046 86.5131 L 278.989 86.4236 L 278.791 86.0522 L 278.718 85.916 C 278.655 85.7826 278.591 85.6493 278.515 85.5227 C 278.336 85.1568 278.131 84.8046 277.939 84.4456 L 277.883 84.3561 L 277.684 83.9847 C 277.684 83.9847 277.641 83.8885 277.611 83.8485 C 277.55 83.7115 277.479 83.5792 277.399 83.4524 C 277.233 83.0798 277.024 82.7371 276.832 82.3781 L 276.776 82.2886 C 276.719 82.1599 276.653 82.0358 276.577 81.9172 C 276.577 81.9172 276.534 81.821 276.504 81.7811 C 270.751 70.6152 261.412 61.6486 248.802 58.0551 C 231.835 53.22 214.632 59.1345 201.17 70.0076 C 187.294 80.7415 176.597 96.8403 170.004 116.113 C 163.894 135.355 163.008 154.375 168.014 170.532 C 169.26 174.78 170.955 178.881 173.072 182.769 L 173.366 183.304 L 173.351 183.352 L 173.868 184.318 C 173.947 184.498 174.043 184.662 174.13 184.823 L 174.424 185.358 L 174.457 185.42 L 174.974 186.385 L 175.233 186.9 L 175.531 187.425 C 175.548 187.442 175.56 187.464 175.564 187.487 L 176.081 188.453 L 176.34 188.967 L 176.638 189.493 C 176.648 189.502 176.655 189.513 176.66 189.525 C 176.666 189.538 176.668 189.551 176.668 189.564 L 177.185 190.53 L 177.457 191.037 L 177.745 191.56 L 177.784 191.634 L 178.301 192.6 C 184.044 203.312 193.152 212.003 205.733 215.588 C 222.259 220.298 239.757 214.236 253.155 203.555 C 266.806 192.757 277.802 176.533 284.113 157.401 C 290.535 138.027 291.151 119.108 286.37 103.016 Z M 232.224 174.53 C 223.018 181.789 214.611 183.768 207.963 181.874 C 203.904 180.611 200.388 178.143 197.9 174.81 C 197.723 174.34 197.562 173.853 197.408 173.348 C 194.31 162.802 194.45 148.122 199.375 133.19 C 204.369 118.047 213.036 106.028 222.02 98.7264 C 231.386 91.7324 240.026 89.5993 246.646 91.7063 C 250.528 92.7935 253.907 95.0812 256.277 98.2277 C 256.471 98.7761 256.659 99.3121 256.807 99.8685 C 259.836 110.625 259.756 125.091 254.771 140.205 C 249.885 155.148 241.152 167.401 232.224 174.53 Z" stroke-linecap="round" />
</g>
		<g transform="matrix(1 0 0 1 2.14 0.78)"  >
<path style="stroke: none; stroke-width: 1; stroke-dasharray: none; stroke-linecap: butt; stroke-dashoffset: 0; stroke-linejoin: miter; stroke-miterlimit: 4; fill: rgb(0,0,0); fill-rule: nonzero; opacity: 0.1;" vector-effect="non-scaling-stroke"  transform=" translate(-227.14, -136.78)" d="M 286.37 103.016 C 285.138 98.7125 283.424 94.5657 281.259 90.6481 C 281.184 90.4893 281.099 90.3354 281.004 90.1872 L 280.931 90.051 C 280.868 89.9176 280.805 89.7842 280.729 89.6576 C 280.55 89.2918 280.345 88.9396 280.152 88.5806 L 280.096 88.4911 L 279.897 88.1197 C 279.876 88.0727 279.852 88.0272 279.824 87.9835 C 279.761 87.8501 279.698 87.7167 279.622 87.5902 C 279.443 87.2243 279.238 86.8721 279.046 86.5131 L 278.989 86.4236 L 278.791 86.0522 L 278.718 85.916 C 278.655 85.7826 278.591 85.6493 278.515 85.5227 C 278.336 85.1568 278.131 84.8046 277.939 84.4456 L 277.883 84.3561 L 277.684 83.9847 C 277.684 83.9847 277.641 83.8885 277.611 83.8485 C 277.55 83.7115 277.479 83.5792 277.399 83.4524 C 277.233 83.0798 277.024 82.7371 276.832 82.3781 L 276.776 82.2886 C 276.719 82.1599 276.653 82.0358 276.577 81.9172 C 276.577 81.9172 276.534 81.821 276.504 81.7811 C 270.751 70.6152 261.412 61.6486 248.802 58.0551 C 231.835 53.22 214.632 59.1345 201.17 70.0076 C 187.294 80.7415 176.597 96.8403 170.004 116.113 C 163.894 135.355 163.008 154.375 168.014 170.532 C 169.26 174.78 170.955 178.881 173.072 182.769 L 173.366 183.304 L 173.351 183.352 L 173.868 184.318 C 173.947 184.498 174.043 184.662 174.13 184.823 L 174.424 185.358 L 174.457 185.42 L 174.974 186.385 L 175.233 186.9 L 175.531 187.425 C 175.548 187.442 175.56 187.464 175.564 187.487 L 176.081 188.453 L 176.34 188.967 L 176.638 189.493 C 176.648 189.502 176.655 189.513 176.66 189.525 C 176.666 189.538 176.668 189.551 176.668 189.564 L 177.185 190.53 L 177.457 191.037 L 177.745 191.56 L 177.784 191.634 L 178.301 192.6 C 184.044 203.312 193.152 212.003 205.733 215.588 C 222.259 220.298 239.757 214.236 253.155 203.555 C 266.806 192.757 277.802 176.533 284.113 157.401 C 290.535 138.027 291.151 119.108 286.37 103.016 Z M 232.224 174.53 C 223.018 181.789 214.611 183.768 207.963 181.874 C 203.904 180.611 200.388 178.143 197.9 174.81 C 197.723 174.34 197.562 173.853 197.408 173.348 C 194.31 162.802 194.45 148.122 199.375 133.19 C 204.369 118.047 213.036 106.028 222.02 98.7264 C 231.386 91.7324 240.026 89.5993 246.646 91.7063 C 250.528 92.7935 253.907 95.0812 256.277 98.2277 C 256.471 98.7761 256.659 99.3121 256.807 99.8685 C 259.836 110.625 259.756 125.091 254.771 140.205 C 249.885 155.148 241.152 167.401 232.224 174.53 Z" stroke-linecap="round" />
</g>
		<g transform="matrix(1 0 0 1 -0.72 -4.44)"  >
<path style="stroke: none; stroke-width: 1; stroke-dasharray: none; stroke-linecap: butt; stroke-dashoffset: 0; stroke-linejoin: miter; stroke-miterlimit: 4; fill: rgb(0,146,71); fill-rule: nonzero; opacity: 1;" vector-effect="non-scaling-stroke"  transform=" translate(-224.28, -131.56)" d="M 169.905 116.063 C 176.499 96.7836 187.198 80.7408 201.071 69.9769 C 214.514 59.1218 231.732 53.1821 248.696 58.0165 C 265.219 62.7253 276.122 76.6479 280.7 92.6701 C 285.504 108.725 284.887 127.673 278.508 147.013 C 272.184 166.191 261.222 182.348 247.555 193.17 C 234.172 203.843 216.678 209.904 200.155 205.195 C 183.192 200.36 172.573 186.288 167.925 170.477 C 162.946 154.34 163.808 135.263 169.905 116.063 Z M 254.683 140.223 C 259.674 125.092 259.757 110.619 256.719 99.8925 C 253.406 89.2871 247.715 83.0703 240.989 81.3844 C 234.402 79.2765 225.715 81.3953 216.371 88.3939 C 207.379 95.7233 198.711 107.75 193.73 122.853 C 188.806 137.782 188.663 152.47 191.764 163.004 C 195.213 173.879 201.167 179.95 207.853 181.856 C 214.538 183.761 222.875 181.763 232.112 174.503 C 241.032 167.394 249.766 155.134 254.683 140.223 Z" stroke-linecap="round" />
</g>
		<g transform="matrix(1 0 0 1 133.15 49.14)"  >
<path style="stroke: none; stroke-width: 1; stroke-dasharray: none; stroke-linecap: butt; stroke-dashoffset: 0; stroke-linejoin: miter; stroke-miterlimit: 4; fill: rgb(0,146,71); fill-rule: nonzero; opacity: 1;" vector-effect="non-scaling-stroke"  transform=" translate(-358.15, -185.14)" d="M 409.597 222.587 C 409.434 222.237 409.249 221.89 409.057 221.562 C 408.884 221.208 408.695 220.871 408.503 220.544 C 408.33 220.19 408.154 219.846 407.962 219.518 C 407.789 219.164 407.604 218.818 407.408 218.5 C 407.236 218.146 407.06 217.802 406.868 217.474 C 406.695 217.121 406.509 216.774 406.314 216.456 C 406.141 216.102 405.956 215.755 405.773 215.43 C 405.612 215.082 405.43 214.743 405.229 214.415 C 405.057 214.061 404.868 213.724 404.676 213.396 C 404.142 212.261 403.42 211.223 402.539 210.32 L 428.7 131.021 C 428.839 130.599 428.703 130.329 428.842 129.907 C 429.037 129.491 429.107 129.033 429.041 128.588 C 429.111 128.377 429.045 127.896 429.114 127.685 C 429.139 127.22 429.131 126.755 429.091 126.293 C 428.946 125.995 428.896 125.659 428.948 125.328 C 428.831 124.878 428.657 124.444 428.431 124.037 C 428.276 123.762 428.206 123.29 428.063 123.008 L 427.479 121.918 C 427.521 121.793 427.398 121.612 427.238 121.482 L 426.956 120.939 L 426.907 120.926 C 426.951 120.791 426.835 120.622 426.678 120.482 L 426.383 119.947 C 426.424 119.822 426.301 119.64 426.144 119.501 L 425.859 118.968 C 425.903 118.834 425.777 118.662 425.62 118.522 L 425.338 117.98 C 425.379 117.855 425.257 117.674 425.099 117.534 L 424.804 116.999 L 424.82 116.951 C 424.861 116.826 424.736 116.654 424.578 116.514 L 424.296 115.972 L 424.247 115.958 C 424.288 115.833 424.175 115.654 424.018 115.515 L 423.723 114.98 L 423.739 114.932 C 423.78 114.807 423.654 114.635 423.497 114.495 L 423.215 113.953 L 423.166 113.939 C 423.21 113.805 423.094 113.635 422.937 113.496 L 422.642 112.96 C 422.683 112.836 422.561 112.654 422.4 112.524 L 422.081 111.929 C 422.151 111.718 421.799 111.387 421.574 111.323 C 421.583 111.295 421.587 111.266 421.584 111.238 C 421.582 111.209 421.574 111.181 421.56 111.156 C 421.547 111.13 421.528 111.108 421.505 111.09 C 421.483 111.072 421.456 111.059 421.428 111.051 C 421.073 110.729 420.921 110.444 420.569 110.113 C 420.285 109.744 420.022 109.361 419.78 108.964 C 419.564 108.903 419.199 108.578 418.984 108.517 C 418.622 108.183 417.985 108.002 417.833 107.717 C 417.451 107.642 417.102 107.466 416.821 107.208 L 413.177 106.17 C 412.868 106.258 412.54 106.242 412.248 106.125 C 411.528 106.162 411.107 106.042 410.812 106.189 C 410.391 106.069 410.109 106.209 409.741 106.576 C 409.277 106.457 408.783 106.473 408.321 106.623 C 408.046 106.776 407.532 106.871 407.26 107.014 C 406.867 107.235 406.421 107.348 405.973 107.34 C 405.705 107.61 405.392 107.833 405.048 108 C 404.762 108.15 404.696 108.351 404.49 108.293 L 292.794 182.087 C 290.174 183.769 288.293 186.347 287.541 189.286 C 286.789 192.225 287.224 195.299 288.756 197.869 C 288.912 198.231 289.098 198.579 289.313 198.91 C 289.464 199.269 289.648 199.613 289.864 199.938 C 290.02 200.3 290.206 200.648 290.421 200.978 C 290.979 202.011 291.531 203.046 292.076 204.085 C 292.454 204.77 292.823 205.46 293.183 206.154 C 293.341 206.512 293.528 206.857 293.744 207.185 C 294.064 207.893 294.46 208.565 294.926 209.19 C 296.377 211.483 298.689 213.129 301.393 213.794 L 360.888 230.745 L 358.258 238.719 C 357.705 240.337 357.507 242.04 357.678 243.717 C 357.849 245.394 358.384 247.007 359.25 248.449 C 359.413 248.8 359.601 249.137 359.787 249.453 C 359.943 249.791 360.125 250.116 360.317 250.444 C 360.48 250.789 360.663 251.125 360.864 251.45 C 361.031 251.791 361.203 252.113 361.395 252.441 C 361.558 252.792 361.747 253.129 361.939 253.456 C 362.105 253.798 362.274 254.129 362.47 254.447 C 362.633 254.798 362.821 255.136 363.013 255.463 C 363.18 255.804 363.349 256.136 363.544 256.454 C 363.702 256.802 363.881 257.14 364.078 257.467 C 365.132 259.643 366.846 261.44 368.997 262.625 C 371.148 263.811 373.636 264.329 376.137 264.112 C 378.638 263.896 381.036 262.955 383.019 261.411 C 385.001 259.868 386.476 257.795 387.25 255.461 L 392.452 239.695 L 394.607 240.309 C 396.168 240.783 397.82 240.948 399.467 240.794 C 401.113 240.641 402.721 240.171 404.197 239.414 C 405.673 238.656 406.988 237.625 408.064 236.381 C 409.141 235.137 409.958 233.705 410.467 232.168 C 411.016 230.58 411.221 228.908 411.072 227.259 C 410.922 225.61 410.42 224.019 409.597 222.587 Z M 382.412 165.503 L 371.192 199.51 L 343.208 191.537 L 382.412 165.503 Z" stroke-linecap="round" />
</g>
		<g transform="matrix(1 0 0 1 133.15 49.14)"  >
<path style="stroke: none; stroke-width: 1; stroke-dasharray: none; stroke-linecap: butt; stroke-dashoffset: 0; stroke-linejoin: miter; stroke-miterlimit: 4; fill: rgb(0,0,0); fill-rule: nonzero; opacity: 0.1;" vector-effect="non-scaling-stroke"  transform=" translate(-358.15, -185.14)" d="M 409.597 222.587 C 409.434 222.237 409.249 221.89 409.057 221.562 C 408.884 221.208 408.695 220.871 408.503 220.544 C 408.33 220.19 408.154 219.846 407.962 219.518 C 407.789 219.164 407.604 218.818 407.408 218.5 C 407.236 218.146 407.06 217.802 406.868 217.474 C 406.695 217.121 406.509 216.774 406.314 216.456 C 406.141 216.102 405.956 215.755 405.773 215.43 C 405.612 215.082 405.43 214.743 405.229 214.415 C 405.057 214.061 404.868 213.724 404.676 213.396 C 404.142 212.261 403.42 211.223 402.539 210.32 L 428.7 131.021 C 428.839 130.599 428.703 130.329 428.842 129.907 C 429.037 129.491 429.107 129.033 429.041 128.588 C 429.111 128.377 429.045 127.896 429.114 127.685 C 429.139 127.22 429.131 126.755 429.091 126.293 C 428.946 125.995 428.896 125.659 428.948 125.328 C 428.831 124.878 428.657 124.444 428.431 124.037 C 428.276 123.762 428.206 123.29 428.063 123.008 L 427.479 121.918 C 427.521 121.793 427.398 121.612 427.238 121.482 L 426.956 120.939 L 426.907 120.926 C 426.951 120.791 426.835 120.622 426.678 120.482 L 426.383 119.947 C 426.424 119.822 426.301 119.64 426.144 119.501 L 425.859 118.968 C 425.903 118.834 425.777 118.662 425.62 118.522 L 425.338 117.98 C 425.379 117.855 425.257 117.674 425.099 117.534 L 424.804 116.999 L 424.82 116.951 C 424.861 116.826 424.736 116.654 424.578 116.514 L 424.296 115.972 L 424.247 115.958 C 424.288 115.833 424.175 115.654 424.018 115.515 L 423.723 114.98 L 423.739 114.932 C 423.78 114.807 423.654 114.635 423.497 114.495 L 423.215 113.953 L 423.166 113.939 C 423.21 113.805 423.094 113.635 422.937 113.496 L 422.642 112.96 C 422.683 112.836 422.561 112.654 422.4 112.524 L 422.081 111.929 C 422.151 111.718 421.799 111.387 421.574 111.323 C 421.583 111.295 421.587 111.266 421.584 111.238 C 421.582 111.209 421.574 111.181 421.56 111.156 C 421.547 111.13 421.528 111.108 421.505 111.09 C 421.483 111.072 421.456 111.059 421.428 111.051 C 421.073 110.729 420.921 110.444 420.569 110.113 C 420.285 109.744 420.022 109.361 419.78 108.964 C 419.564 108.903 419.199 108.578 418.984 108.517 C 418.622 108.183 417.985 108.002 417.833 107.717 C 417.451 107.642 417.102 107.466 416.821 107.208 L 413.177 106.17 C 412.868 106.258 412.54 106.242 412.248 106.125 C 411.528 106.162 411.107 106.042 410.812 106.189 C 410.391 106.069 410.109 106.209 409.741 106.576 C 409.277 106.457 408.783 106.473 408.321 106.623 C 408.046 106.776 407.532 106.871 407.26 107.014 C 406.867 107.235 406.421 107.348 405.973 107.34 C 405.705 107.61 405.392 107.833 405.048 108 C 404.762 108.15 404.696 108.351 404.49 108.293 L 292.794 182.087 C 290.174 183.769 288.293 186.347 287.541 189.286 C 286.789 192.225 287.224 195.299 288.756 197.869 C 288.912 198.231 289.098 198.579 289.313 198.91 C 289.464 199.269 289.648 199.613 289.864 199.938 C 290.02 200.3 290.206 200.648 290.421 200.978 C 290.979 202.011 291.531 203.046 292.076 204.085 C 292.454 204.77 292.823 205.46 293.183 206.154 C 293.341 206.512 293.528 206.857 293.744 207.185 C 294.064 207.893 294.46 208.565 294.926 209.19 C 296.377 211.483 298.689 213.129 301.393 213.794 L 360.888 230.745 L 358.258 238.719 C 357.705 240.337 357.507 242.04 357.678 243.717 C 357.849 245.394 358.384 247.007 359.25 248.449 C 359.413 248.8 359.601 249.137 359.787 249.453 C 359.943 249.791 360.125 250.116 360.317 250.444 C 360.48 250.789 360.663 251.125 360.864 251.45 C 361.031 251.791 361.203 252.113 361.395 252.441 C 361.558 252.792 361.747 253.129 361.939 253.456 C 362.105 253.798 362.274 254.129 362.47 254.447 C 362.633 254.798 362.821 255.136 363.013 255.463 C 363.18 255.804 363.349 256.136 363.544 256.454 C 363.702 256.802 363.881 257.14 364.078 257.467 C 365.132 259.643 366.846 261.44 368.997 262.625 C 371.148 263.811 373.636 264.329 376.137 264.112 C 378.638 263.896 381.036 262.955 383.019 261.411 C 385.001 259.868 386.476 257.795 387.25 255.461 L 392.452 239.695 L 394.607 240.309 C 396.168 240.783 397.82 240.948 399.467 240.794 C 401.113 240.641 402.721 240.171 404.197 239.414 C 405.673 238.656 406.988 237.625 408.064 236.381 C 409.141 235.137 409.958 233.705 410.467 232.168 C 411.016 230.58 411.221 228.908 411.072 227.259 C 410.922 225.61 410.42 224.019 409.597 222.587 Z M 382.412 165.503 L 371.192 199.51 L 343.208 191.537 L 382.412 165.503 Z" stroke-linecap="round" />
</g>
		<g transform="matrix(1 0 0 1 130.22 43.9)"  >
<path style="stroke: none; stroke-width: 1; stroke-dasharray: none; stroke-linecap: butt; stroke-dashoffset: 0; stroke-linejoin: miter; stroke-miterlimit: 4; fill: rgb(0,146,71); fill-rule: nonzero; opacity: 1;" vector-effect="non-scaling-stroke"  transform=" translate(-355.22, -179.9)" d="M 405.05 221.866 C 404.542 223.403 403.726 224.835 402.651 226.079 C 401.576 227.323 400.263 228.355 398.787 229.113 C 397.312 229.87 395.705 230.34 394.06 230.494 C 392.414 230.648 390.763 230.484 389.202 230.01 L 387.057 229.398 L 381.781 245.393 C 380.768 248.461 378.553 251.05 375.621 252.589 C 372.689 254.127 369.282 254.49 366.149 253.597 C 363.015 252.705 360.412 250.629 358.912 247.828 C 357.412 245.027 357.139 241.729 358.151 238.66 L 363.427 222.666 L 295.761 203.387 C 293.056 202.726 290.743 201.079 289.295 198.784 C 288.35 197.515 287.686 196.064 287.344 194.521 C 287.001 192.978 286.988 191.375 287.305 189.808 C 287.621 188.241 288.261 186.743 289.184 185.406 C 290.108 184.069 291.297 182.921 292.679 182.03 L 404.105 107.901 C 404.321 107.962 404.387 107.761 404.673 107.611 C 405.019 107.447 405.332 107.223 405.598 106.951 C 406.046 106.959 406.491 106.846 406.884 106.625 C 407.169 106.475 407.67 106.387 407.955 106.237 C 408.417 106.077 408.913 106.057 409.378 106.18 C 409.729 105.829 410.015 105.68 410.436 105.8 C 410.721 105.65 411.152 105.773 411.868 105.746 C 412.162 105.864 412.492 105.876 412.8 105.78 L 416.454 106.822 C 416.725 107.086 417.072 107.265 417.452 107.337 C 417.598 107.609 418.245 107.794 418.606 108.128 C 418.822 108.189 419.183 108.523 419.399 108.584 C 419.694 109.12 420.045 109.451 420.191 109.723 C 420.553 110.057 420.699 110.33 421.06 110.664 C 421.117 110.68 421.165 110.718 421.192 110.769 C 421.219 110.82 421.224 110.88 421.206 110.936 C 421.421 110.997 421.773 111.329 421.703 111.54 L 422.287 112.63 C 422.433 112.902 422.512 113.376 422.658 113.649 C 422.882 114.06 423.055 114.496 423.172 114.95 C 423.121 115.282 423.174 115.619 423.325 115.917 C 423.367 116.374 423.372 116.836 423.341 117.296 C 423.272 117.507 423.338 117.988 423.268 118.199 C 423.333 118.648 423.262 119.109 423.066 119.527 C 422.93 119.94 423.076 120.212 422.937 120.634 L 394.691 206.256 L 396.837 206.868 C 400 207.752 402.638 209.825 404.177 212.634 C 405.715 215.443 406.029 218.762 405.05 221.866 Z M 388.204 147.56 L 328.318 187.346 L 371.061 199.524 L 388.204 147.56 Z" stroke-linecap="round" />
</g>
		<g transform="matrix(1 0 0 1 150.12 -38.33)"  >
<path style="stroke: none; stroke-width: 1; stroke-dasharray: none; stroke-linecap: butt; stroke-dashoffset: 0; stroke-linejoin: miter; stroke-miterlimit: 4; fill: rgb(255,255,255); fill-rule: nonzero; opacity: 1;" vector-effect="non-scaling-stroke"  transform=" translate(-375.12, -97.67)" d="M 409.736 109.222 C 407.37 114.474 403.566 119.029 398.75 122.378 C 393.934 125.727 388.294 127.739 382.46 128.189 C 376.626 128.639 370.828 127.509 365.713 124.926 C 360.597 122.342 356.366 118.407 353.49 113.559 L 337.763 111.455 L 349.481 100.875 C 349.125 96.2447 349.864 91.5647 351.642 87.1904 C 353.421 82.8161 356.191 78.8627 359.743 75.631 C 363.295 72.3992 367.535 69.9742 372.14 68.5403 C 376.745 67.1064 381.594 66.7015 386.319 67.3562 C 391.044 68.0109 395.519 69.7081 399.406 72.3187 C 403.292 74.9293 406.486 78.3845 408.746 82.4216 C 411.006 86.4586 412.271 90.9713 412.446 95.6163 C 412.621 100.261 411.701 104.916 409.756 109.227 L 409.736 109.222 Z" stroke-linecap="round" />
</g>
		<g transform="matrix(1 0 0 1 149.49 -38.43)"  >
<path style="stroke: none; stroke-width: 1; stroke-dasharray: none; stroke-linecap: butt; stroke-dashoffset: 0; stroke-linejoin: miter; stroke-miterlimit: 4; fill: rgb(38,50,56); fill-rule: nonzero; opacity: 1;" vector-effect="non-scaling-stroke"  transform=" translate(-374.49, -97.57)" d="M 409.731 109.218 C 407.365 114.475 403.566 119.038 398.754 122.402 C 396.374 124.106 393.753 125.459 390.979 126.415 C 385.431 128.429 379.465 128.94 373.735 127.892 C 372.308 127.625 370.907 127.255 369.543 126.784 C 368.162 126.359 366.822 125.822 365.537 125.181 C 360.333 122.614 356.013 118.668 353.062 113.784 L 353.38 113.991 L 337.653 111.982 L 336.508 111.835 L 337.377 111.029 L 349.052 100.414 L 348.887 100.915 C 348.444 95.0329 349.748 89.099 352.645 83.8136 C 355.543 78.5283 359.913 74.1122 365.24 71.0868 C 370.566 68.0614 376.627 66.553 382.706 66.7396 C 388.786 66.9262 394.63 68.8001 399.549 72.14 C 403.407 74.8169 406.574 78.3161 408.816 82.3817 C 411.056 86.4329 412.303 90.9539 412.461 95.6031 C 412.62 100.252 411.686 104.908 409.731 109.218 Z M 409.731 109.218 C 411.666 104.929 412.575 100.296 412.387 95.6752 C 412.2 91.0546 410.921 86.5699 408.65 82.5661 C 406.378 78.5622 403.175 75.1461 399.285 72.5805 C 395.396 70.0148 390.924 68.3682 386.215 67.7672 C 381.544 67.1575 376.759 67.5977 372.225 69.0541 C 367.72 70.5423 363.573 72.9573 360.074 76.1308 C 356.602 79.3127 353.893 83.1951 352.152 87.4865 C 350.436 91.7783 349.712 96.3577 350.033 100.894 L 350.052 101.194 L 349.835 101.395 L 338.087 111.937 L 337.804 111.003 L 353.507 113.216 L 353.714 113.275 L 353.817 113.452 C 356.615 118.269 360.762 122.195 365.795 124.791 C 367.046 125.442 368.352 125.993 369.7 126.439 C 371.037 126.92 372.41 127.31 373.807 127.608 C 376.615 128.177 379.503 128.361 382.387 128.153 C 385.288 127.965 388.157 127.362 390.9 126.361 C 392.273 125.88 393.616 125.315 394.92 124.671 C 396.208 123.992 397.455 123.238 398.653 122.415 C 403.503 119.06 407.338 114.492 409.731 109.218 Z" stroke-linecap="round" />
</g>
		<g transform="matrix(1 0 0 1 144.17 -41.98)"  >
<path style="stroke: none; stroke-width: 1; stroke-dasharray: none; stroke-linecap: butt; stroke-dashoffset: 0; stroke-linejoin: miter; stroke-miterlimit: 4; fill: rgb(0,146,71); fill-rule: nonzero; opacity: 1;" vector-effect="non-scaling-stroke"  transform=" translate(-369.17, -94.02)" d="M 361.762 106.993 C 361.87 106.601 362.057 106.233 362.312 105.91 C 362.567 105.587 362.884 105.316 363.245 105.114 C 363.605 104.912 364.002 104.783 364.41 104.734 C 364.818 104.686 365.23 104.719 365.619 104.831 C 366.419 105.062 367.083 105.598 367.466 106.321 C 367.848 107.045 367.918 107.898 367.659 108.691 C 367.4 109.484 366.834 110.154 366.085 110.552 C 365.336 110.95 364.466 111.044 363.667 110.814 C 363.277 110.702 362.916 110.513 362.607 110.257 C 362.298 110.002 362.047 109.687 361.869 109.329 C 361.691 108.972 361.589 108.581 361.571 108.179 C 361.553 107.778 361.618 107.374 361.762 106.993 Z M 365.233 100.447 L 372.11 77.0933 L 376.778 78.4372 L 368.507 101.359 L 365.233 100.447 Z" stroke-linecap="round" />
</g>
		<g transform="matrix(1 0 0 1 155.78 -38.58)"  >
<path style="stroke: none; stroke-width: 1; stroke-dasharray: none; stroke-linecap: butt; stroke-dashoffset: 0; stroke-linejoin: miter; stroke-miterlimit: 4; fill: rgb(0,146,71); fill-rule: nonzero; opacity: 1;" vector-effect="non-scaling-stroke"  transform=" translate(-380.78, -97.42)" d="M 373.368 110.393 C 373.476 110.002 373.663 109.633 373.918 109.31 C 374.173 108.987 374.49 108.717 374.851 108.515 C 375.212 108.313 375.608 108.183 376.016 108.135 C 376.425 108.086 376.836 108.119 377.226 108.232 C 378.026 108.462 378.69 108.998 379.072 109.722 C 379.455 110.446 379.524 111.298 379.265 112.091 C 379.006 112.885 378.44 113.554 377.691 113.952 C 376.943 114.35 376.073 114.444 375.273 114.214 C 374.883 114.102 374.522 113.913 374.213 113.658 C 373.904 113.403 373.653 113.087 373.475 112.73 C 373.297 112.373 373.196 111.981 373.177 111.58 C 373.159 111.178 373.224 110.774 373.368 110.393 Z M 376.839 103.848 L 383.717 80.4937 L 388.384 81.8376 L 380.143 104.799 L 376.839 103.848 Z" stroke-linecap="round" />
</g>
		<g transform="matrix(1 0 0 1 167.35 -35.2)"  >
<path style="stroke: none; stroke-width: 1; stroke-dasharray: none; stroke-linecap: butt; stroke-dashoffset: 0; stroke-linejoin: miter; stroke-miterlimit: 4; fill: rgb(0,146,71); fill-rule: nonzero; opacity: 1;" vector-effect="non-scaling-stroke"  transform=" translate(-392.35, -100.8)" d="M 384.935 113.78 C 385.043 113.388 385.23 113.02 385.485 112.697 C 385.739 112.374 386.057 112.103 386.417 111.901 C 386.778 111.699 387.175 111.57 387.583 111.521 C 387.991 111.473 388.402 111.506 388.792 111.618 C 389.592 111.849 390.256 112.385 390.639 113.109 C 391.021 113.832 391.09 114.685 390.831 115.478 C 390.572 116.271 390.006 116.941 389.258 117.339 C 388.509 117.737 387.639 117.831 386.839 117.601 C 386.449 117.489 386.089 117.3 385.78 117.045 C 385.471 116.789 385.22 116.474 385.042 116.116 C 384.863 115.759 384.762 115.368 384.744 114.966 C 384.725 114.565 384.79 114.161 384.935 113.78 Z M 388.406 107.234 L 395.283 83.8804 L 399.951 85.2243 L 391.709 108.186 L 388.406 107.234 Z" stroke-linecap="round" />
</g>
</g>
</g>
</svg>