<svg version="1.2" xmlns="http://www.w3.org/2000/svg" viewBox="0 0 1920 350" width="1920" height="350">
	<title>bgH2</title>
	<style>
		.s0 { fill: #009247 } 
		.s1 { opacity: .5;fill: none;stroke: #54b435;stroke-width: 12 } 
		.s2 { opacity: .1;fill: none;stroke: #ffffff;stroke-width: 24 } 
		.s3 { opacity: .1;fill: none;stroke: #ffffff;stroke-width: 25 } 
	</style>
	<path id="bg" fill-rule="evenodd" class="s0" d="m-52 7.3c0-10.9 0-16.4 2.9-20.6 2.5-3.7 6.5-6.7 11.5-8.6 5.6-2.1 13-2.1 27.8-2.1h1938.9c14.8 0 22.2 0 27.8 2.1 5 1.9 9 4.9 11.6 8.6 2.8 4.2 2.8 9.7 2.8 20.6v359c0 11 0 16.4-2.8 20.6-2.6 3.7-6.6 6.7-11.6 8.6-5.6 2.1-13 2.1-27.8 2.1h-1938.9c-14.8 0-22.2 0-27.8-2.1-5-1.9-9-4.9-11.5-8.6-2.9-4.2-2.9-9.6-2.9-20.6z"/>
	<g id="circle">
		<path id="Layer" fill-rule="evenodd" class="s1" d="m727 109.5c0 8.4-7 15.5-16 15.5-9 0-16-7.1-16-15.5 0-8.4 7-15.5 16-15.5 9 0 16 7.1 16 15.5z"/>
		<path id="Layer" class="s1" d="m859.5 22c-8.6 0-15.5-6.9-15.5-15.5 0-8.6 6.9-15.5 15.5-15.5 8.6 0 15.5 6.9 15.5 15.5 0 8.6-6.9 15.5-15.5 15.5z"/>
		<path id="Layer" class="s2" d="m64 272c-35.4 0-64-28.6-64-64 0-35.4 28.6-64 64-64 35.4 0 64 28.6 64 64 0 35.4-28.6 64-64 64z"/>
		<path id="Layer" fill-rule="evenodd" class="s1" d="m102 41.5c0 12.9-10.7 23.5-24 23.5-13.4 0-24-10.6-24-23.5 0-12.9 10.6-23.5 24-23.5 13.3 0 24 10.6 24 23.5z"/>
		<path id="Layer" fill-rule="evenodd" class="s3" d="m582.5 47.5c0 33.8-27.2 61-60.5 61-33.3 0-60.5-27.2-60.5-61 0-33.8 27.2-61 60.5-61 33.3 0 60.5 27.2 60.5 61z"/>
		<path id="Layer" fill-rule="evenodd" class="s3" d="m1220.5 150c0 54.9-44.7 99.5-100 99.5-55.3 0-100-44.6-100-99.5 0-54.9 44.7-99.5 100-99.5 55.3 0 100 44.6 100 99.5z"/>
	</g>
	<g id="circle copy">
		<path id="Layer" fill-rule="evenodd" class="s1" d="m1680 95.5c0 8.4-7 15.5-16 15.5-9 0-16-7.1-16-15.5 0-8.4 7-15.5 16-15.5 9 0 16 7.1 16 15.5z"/>
		<path id="Layer" class="s1" d="m1556.5 411c-42.9 0-77.5-34.6-77.5-77.5 0-42.9 34.6-77.5 77.5-77.5 42.9 0 77.5 34.6 77.5 77.5 0 42.9-34.6 77.5-77.5 77.5z"/>
		<path id="Layer" fill-rule="evenodd" class="s3" d="m1521.5 81.5c0 33.8-27.2 61-60.5 61-33.3 0-60.5-27.2-60.5-61 0-33.8 27.2-61 60.5-61 33.3 0 60.5 27.2 60.5 61z"/>
		<path id="Layer" fill-rule="evenodd" class="s3" d="m1933.5 223c0 54.9-44.7 99.5-100 99.5-55.3 0-100-44.6-100-99.5 0-54.9 44.7-99.5 100-99.5 55.3 0 100 44.6 100 99.5z"/>
	</g>
	<g id="circle copy 2">
		<path id="Layer" fill-rule="evenodd" class="s1" d="m1383 253c0 16.5-13.6 30-30.5 30-16.9 0-30.5-13.5-30.5-30 0-16.5 13.6-30 30.5-30 16.9 0 30.5 13.5 30.5 30z"/>
		<path id="Layer" class="s1" d="m217.5 77c-42.9 0-77.5-34.6-77.5-77.5 0-42.9 34.6-77.5 77.5-77.5 42.9 0 77.5 34.6 77.5 77.5 0 42.9-34.6 77.5-77.5 77.5z"/>
		<path id="Layer" class="s2" d="m1794 77c-35.4 0-64-28.6-64-64 0-35.4 28.6-64 64-64 35.4 0 64 28.6 64 64 0 35.4-28.6 64-64 64z"/>
		<path id="Layer" fill-rule="evenodd" class="s1" d="m886 263.5c0 12.9-10.7 23.5-24 23.5-13.4 0-24-10.6-24-23.5 0-12.9 10.6-23.5 24-23.5 13.3 0 24 10.6 24 23.5z"/>
		<path id="Layer" fill-rule="evenodd" class="s3" d="m486.5 351c0 54.9-44.7 99.5-100 99.5-55.3 0-100-44.6-100-99.5 0-54.9 44.7-99.5 100-99.5 55.3 0 100 44.6 100 99.5z"/>
	</g>
</svg>