<?xml version="1.0" encoding="UTF-8" standalone="no" ?>
<!DOCTYPE svg PUBLIC "-//W3C//DTD SVG 1.1//EN" "http://www.w3.org/Graphics/SVG/1.1/DTD/svg11.dtd">
<svg xmlns="http://www.w3.org/2000/svg" xmlns:xlink="http://www.w3.org/1999/xlink" version="1.1" width="1080" height="1080" viewBox="0 0 1080 1080" xml:space="preserve">
<desc>Created with Fabric.js 5.2.4</desc>
<defs>
</defs>
<g transform="matrix(1 0 0 1 540 540)" id="0e48f837-85d2-4b0b-88fe-b70d94fdc663"  >
<rect style="stroke: none; stroke-width: 1; stroke-dasharray: none; stroke-linecap: butt; stroke-dashoffset: 0; stroke-linejoin: miter; stroke-miterlimit: 4; fill: rgb(255,255,255); fill-rule: nonzero; opacity: 1; visibility: hidden;" vector-effect="non-scaling-stroke"  x="-540" y="-540" rx="0" ry="0" width="1080" height="1080" />
</g>
<g transform="matrix(1 0 0 1 540 540)" id="fd81f3c6-96ee-4fa5-8639-b85c2f0023d1"  >
</g>
<g transform="matrix(6.79 0 0 6.79 540 540)"  >
<g style=""   >
		<g transform="matrix(1 0 0 1 46.28 -41.84)"  >
<path style="stroke: none; stroke-width: 1; stroke-dasharray: none; stroke-linecap: butt; stroke-dashoffset: 0; stroke-linejoin: miter; stroke-miterlimit: 4; fill: rgb(69,90,100); fill-rule: nonzero; opacity: 1;" vector-effect="non-scaling-stroke"  transform=" translate(-125.78, -34.66)" d="M 108.703 24.2285 L 109.872 23.1199 C 113.149 20.0128 117.584 18.2763 122.201 18.2924 C 126.818 18.3086 131.239 20.0761 134.492 23.2061 L 137.807 26.3956 C 141.06 29.5256 142.878 33.7617 142.861 38.1721 C 142.844 42.5824 140.993 46.8057 137.717 49.9129 L 136.548 51.0215 L 108.703 24.2285 Z" stroke-linecap="round" />
</g>
		<g transform="matrix(1 0 0 1 46.28 -41.85)"  >
<path style="stroke: none; stroke-width: 1; stroke-dasharray: none; stroke-linecap: butt; stroke-dashoffset: 0; stroke-linejoin: miter; stroke-miterlimit: 4; fill: rgb(38,50,56); fill-rule: nonzero; opacity: 1;" vector-effect="non-scaling-stroke"  transform=" translate(-125.78, -34.65)" d="M 136.545 51.0376 L 108.678 24.216 L 109.838 23.1074 C 111.453 21.5682 113.371 20.3484 115.48 19.5179 C 117.589 18.6874 119.849 18.2625 122.131 18.2676 L 122.193 18.2676 C 124.484 18.2694 126.752 18.7043 128.866 19.5473 C 130.98 20.3902 132.898 21.6245 134.511 23.1789 L 137.83 26.3737 C 141.084 29.5131 142.902 33.7568 142.886 38.1746 C 142.869 42.5923 141.02 46.8236 137.743 49.9409 L 136.545 51.0376 Z M 108.74 24.2041 L 136.545 50.9542 L 137.693 49.8694 C 140.961 46.7668 142.806 42.5519 142.822 38.1507 C 142.839 33.7496 141.025 29.5222 137.78 26.3975 L 134.461 23.2028 C 132.857 21.6508 130.947 20.4186 128.842 19.5775 C 126.736 18.7365 124.476 18.3034 122.193 18.3034 L 122.131 18.3034 C 119.862 18.2906 117.613 18.7052 115.513 19.5234 C 113.412 20.3416 111.501 21.5473 109.888 23.0717 L 108.74 24.2041 Z" stroke-linecap="round" />
</g>
		<g transform="matrix(1 0 0 1 -43.85 42.08)"  >
<path style="stroke: none; stroke-width: 1; stroke-dasharray: none; stroke-linecap: butt; stroke-dashoffset: 0; stroke-linejoin: miter; stroke-miterlimit: 4; fill: rgb(69,90,100); fill-rule: nonzero; opacity: 1;" vector-effect="non-scaling-stroke"  transform=" translate(-35.65, -118.58)" d="M 52.4619 129.738 L 51.2513 130.805 C 47.858 133.796 43.3599 135.377 38.7465 135.2 C 34.133 135.023 29.7821 133.103 26.6509 129.862 L 23.4603 126.559 C 20.3179 123.306 18.6569 118.994 18.8429 114.571 C 19.0289 110.149 21.0465 105.978 24.4519 102.976 L 25.6166 101.949 L 52.4619 129.738 Z" stroke-linecap="round" />
</g>
		<g transform="matrix(1 0 0 1 -43.84 42.12)"  >
<path style="stroke: none; stroke-width: 1; stroke-dasharray: none; stroke-linecap: butt; stroke-dashoffset: 0; stroke-linejoin: miter; stroke-miterlimit: 4; fill: rgb(38,50,56); fill-rule: nonzero; opacity: 1;" vector-effect="non-scaling-stroke"  transform=" translate(-35.66, -118.62)" d="M 39.4656 135.257 L 38.7418 135.257 C 36.453 135.174 34.2039 134.66 32.1242 133.744 C 30.0444 132.827 28.1751 131.526 26.624 129.917 L 23.4417 126.614 C 20.3113 123.364 18.6573 119.061 18.8421 114.648 C 19.0269 110.235 21.0354 106.072 24.4276 103.071 L 25.6756 101.986 L 52.4943 129.75 L 51.2464 130.822 C 48.0474 133.67 43.8381 135.254 39.4656 135.257 Z M 24.49 103.071 C 22.7984 104.55 21.4297 106.333 20.4627 108.319 C 19.4956 110.305 18.9494 112.454 18.8555 114.642 C 18.7615 116.83 19.1217 119.015 19.9152 121.069 C 20.7087 123.124 21.92 125.009 23.4791 126.614 L 26.6739 129.917 C 28.2191 131.523 30.0823 132.821 32.1558 133.736 C 34.2293 134.65 36.472 135.163 38.7542 135.245 L 39.4656 135.245 C 43.8295 135.253 48.0344 133.681 51.2339 130.846 L 52.4819 129.797 L 25.7255 102.094 L 24.49 103.071 Z" stroke-linecap="round" />
</g>
		<g transform="matrix(1 0 0 1 -61.24 1.09)"  >
<path style="stroke: none; stroke-width: 1; stroke-dasharray: none; stroke-linecap: butt; stroke-dashoffset: 0; stroke-linejoin: miter; stroke-miterlimit: 4; fill: rgb(69,90,100); fill-rule: nonzero; opacity: 1;" vector-effect="non-scaling-stroke"  transform=" translate(-18.26, -77.59)" d="M 9.19412 68.6901 L 7.23535 71.0098 L 27.3327 86.4944 L 29.2915 84.1748 L 9.19412 68.6901 Z" stroke-linecap="round" />
</g>
		<g transform="matrix(1 0 0 1 -72.99 -7.97)"  >
<path style="stroke: none; stroke-width: 1; stroke-dasharray: none; stroke-linecap: butt; stroke-dashoffset: 0; stroke-linejoin: miter; stroke-miterlimit: 4; fill: rgb(38,50,56); fill-rule: nonzero; opacity: 1;" vector-effect="non-scaling-stroke"  transform=" translate(-6.51, -68.53)" d="M 10.5005 63.793 C 11.4808 64.5475 12.2048 65.5627 12.581 66.7103 C 12.9572 67.8578 12.9687 69.0862 12.614 70.24 C 12.2593 71.3938 11.5543 72.4212 10.5883 73.1922 C 9.62224 73.9633 8.43852 74.4434 7.18682 74.5718 C 5.93511 74.7002 4.67166 74.4711 3.55625 73.9136 C 2.44084 73.356 1.52359 72.4951 0.920489 71.4395 C 0.31739 70.384 0.0555357 69.1813 0.168055 67.9836 C 0.280575 66.7859 0.762415 65.647 1.55262 64.7109 C 2.61578 63.4614 4.15274 62.6639 5.82871 62.4919 C 7.50468 62.32 9.18388 62.7877 10.5005 63.793 Z" stroke-linecap="round" />
</g>
		<g transform="matrix(1 0 0 1 10.68 11.19)"  >
<path style="stroke: none; stroke-width: 1; stroke-dasharray: none; stroke-linecap: butt; stroke-dashoffset: 0; stroke-linejoin: miter; stroke-miterlimit: 4; fill: rgb(0,146,71); fill-rule: nonzero; opacity: 1;" vector-effect="non-scaling-stroke"  transform=" translate(-90.18, -87.69)" d="M 86.581 28.2444 L 27.9773 83.8338 C 19.9078 91.4882 19.8623 103.942 27.8756 111.65 L 64.668 147.041 C 72.6814 154.749 85.7191 154.792 93.7886 147.138 L 152.392 91.5484 C 160.462 83.894 160.507 71.4402 152.494 63.7322 L 115.702 28.3415 C 107.688 20.6335 94.6505 20.59 86.581 28.2444 Z" stroke-linecap="round" />
</g>
		<g transform="matrix(1 0 0 1 3.79 -58.15)"  >
<path style="stroke: none; stroke-width: 1; stroke-dasharray: none; stroke-linecap: butt; stroke-dashoffset: 0; stroke-linejoin: miter; stroke-miterlimit: 4; fill: rgb(69,90,100); fill-rule: nonzero; opacity: 1;" vector-effect="non-scaling-stroke"  transform=" translate(-83.29, -18.35)" d="M 88.2242 26.6968 L 85.4662 16.6476 L 78.2904 17.7801 L 76.2188 10.5204 L 78.5649 10.0078 L 80.1998 15.2887 L 87.3631 14.3589 L 90.3582 24.6703 L 88.2242 26.6968 Z" stroke-linecap="round" />
</g>
		<g transform="matrix(1 0 0 1 1.05 1.92)"  >
<path style="stroke: none; stroke-width: 1; stroke-dasharray: none; stroke-linecap: butt; stroke-dashoffset: 0; stroke-linejoin: miter; stroke-miterlimit: 4; fill: rgb(38,50,56); fill-rule: nonzero; opacity: 1;" vector-effect="non-scaling-stroke"  transform=" translate(-80.55, -78.42)" d="M 92.4365 41.4613 L 41.7759 89.5162 C 34.9487 95.9923 34.9102 106.529 41.6899 113.05 L 44.0202 115.292 C 50.8 121.813 61.8307 121.85 68.6579 115.374 L 119.319 67.3192 C 126.146 60.8431 126.184 50.3065 119.405 43.785 L 117.074 41.5435 C 110.294 35.022 99.2638 34.9852 92.4365 41.4613 Z" stroke-linecap="round" />
</g>
		<g transform="matrix(1 0 0 1 1.15 2.17)"  >
<path style="stroke: none; stroke-width: 1; stroke-dasharray: none; stroke-linecap: butt; stroke-dashoffset: 0; stroke-linejoin: miter; stroke-miterlimit: 4; fill: rgb(38,50,56); fill-rule: nonzero; opacity: 1;" vector-effect="non-scaling-stroke"  transform=" translate(-80.65, -78.67)" d="M 122.119 71.7808 C 122.119 71.7808 122.269 71.5901 122.581 71.2444 C 123.07 70.7417 123.528 70.2123 123.953 69.6589 C 125.641 67.578 126.883 65.2004 127.61 62.6614 C 128.134 60.8348 128.414 58.9524 128.446 57.0587 C 128.427 54.8077 128.048 52.5727 127.323 50.4308 C 126.481 47.9714 125.16 45.6862 123.429 43.6956 L 121.957 42.1459 L 120.359 40.6201 C 119.286 39.5427 118.135 38.5388 116.915 37.6161 C 114.267 35.652 111.186 34.2903 107.905 33.6346 C 104.346 33.0026 100.68 33.2072 97.222 34.2306 C 95.4112 34.7768 93.6828 35.5462 92.0803 36.5194 C 90.4417 37.5495 88.9267 38.7488 87.5627 40.0956 L 78.7646 48.4401 L 39.541 85.6684 C 36.1186 88.913 33.9234 93.1529 33.3012 97.7202 C 33.0133 99.9391 33.0891 102.187 33.5258 104.384 C 34.224 107.605 35.6933 110.629 37.8188 113.217 C 38.5551 114.04 39.2789 114.838 40.1026 115.601 C 41.6051 117.175 43.2505 118.619 45.0196 119.917 C 48.4369 122.276 52.501 123.631 56.7132 123.815 C 60.9253 124 65.1022 123.005 68.7309 120.954 C 69.5978 120.477 70.4315 119.947 71.2268 119.368 C 71.9756 118.76 72.7119 118.176 73.3983 117.497 L 77.5041 113.622 L 92.4797 99.4964 L 114.157 79.0763 L 120.047 73.6285 L 121.595 72.198 C 121.944 71.8881 122.144 71.7331 122.144 71.7331 C 122.144 71.7331 121.982 71.9119 121.645 72.2457 L 120.135 73.7239 L 114.307 79.3266 L 92.7667 99.8898 L 77.8785 114.075 L 73.7977 117.962 C 73.0988 118.617 72.3375 119.249 71.5887 119.869 C 70.7927 120.465 69.9592 121.015 69.0928 121.514 C 65.368 123.625 61.0795 124.652 56.7527 124.47 C 52.4258 124.288 48.2485 122.904 44.7325 120.489 C 42.9433 119.166 41.2735 117.703 39.7407 116.114 C 38.9295 115.363 38.1682 114.516 37.407 113.73 C 36.6926 112.847 36.0422 111.919 35.4601 110.952 C 34.2775 108.988 33.4346 106.855 32.9642 104.634 C 32.5106 102.371 32.4305 100.054 32.7271 97.7679 C 33.3503 93.073 35.5943 88.7105 39.1042 85.3704 L 78.3652 48.1659 L 87.1883 39.8214 C 88.5829 38.4441 90.1313 37.2168 91.8058 36.1617 C 95.6455 33.826 100.146 32.6791 104.694 32.8775 C 109.241 33.0759 113.614 34.61 117.214 37.2704 C 118.45 38.211 119.614 39.2348 120.696 40.334 L 122.281 41.8718 L 123.791 43.3857 C 125.531 45.4439 126.848 47.7979 127.672 50.3235 C 128.4 52.5004 128.762 54.7736 128.746 57.0587 C 128.699 58.9781 128.402 60.8843 127.86 62.733 C 127.108 65.2825 125.835 67.6647 124.116 69.7423 C 123.675 70.286 123.195 70.7998 122.68 71.2801 L 122.119 71.7808 Z" stroke-linecap="round" />
</g>
		<g transform="matrix(1 0 0 1 -22.31 22.02)"  >
<path style="stroke: none; stroke-width: 1; stroke-dasharray: none; stroke-linecap: butt; stroke-dashoffset: 0; stroke-linejoin: miter; stroke-miterlimit: 4; fill: rgb(255,255,255); fill-rule: nonzero; opacity: 1;" vector-effect="non-scaling-stroke"  transform=" translate(-57.19, -98.52)" d="M 57.3493 109.246 C 56.9717 105.682 56.8092 102.1 56.8626 98.5177 C 56.698 94.9413 56.7564 91.3588 57.0374 87.7891 C 57.4055 91.354 57.5638 94.9358 57.5116 98.5177 C 57.6696 102.094 57.6155 105.676 57.3493 109.246 Z" stroke-linecap="round" />
</g>
		<g transform="matrix(1 0 0 1 -22.51 21.66)"  >
<path style="stroke: none; stroke-width: 1; stroke-dasharray: none; stroke-linecap: butt; stroke-dashoffset: 0; stroke-linejoin: miter; stroke-miterlimit: 4; fill: rgb(255,255,255); fill-rule: nonzero; opacity: 1;" vector-effect="non-scaling-stroke"  transform=" translate(-56.99, -98.16)" d="M 68.2192 97.6708 C 64.4956 98.1526 60.7449 98.4193 56.9876 98.4695 C 53.25 98.7275 49.5003 98.7872 45.7559 98.6483 C 49.4796 98.1674 53.2303 97.9007 56.9876 97.8496 C 60.7251 97.5912 64.4748 97.5315 68.2192 97.6708 Z" stroke-linecap="round" />
</g>
		<g transform="matrix(1 0 0 1 22.16 -21.28)"  >
<path style="stroke: none; stroke-width: 1; stroke-dasharray: none; stroke-linecap: butt; stroke-dashoffset: 0; stroke-linejoin: miter; stroke-miterlimit: 4; fill: rgb(255,255,255); fill-rule: nonzero; opacity: 1;" vector-effect="non-scaling-stroke"  transform=" translate(-101.66, -55.22)" d="M 101.827 65.9514 C 101.45 62.387 101.288 58.8049 101.34 55.2228 C 101.174 51.6464 101.233 48.0638 101.515 44.4941 C 101.883 48.0591 102.041 51.6409 101.989 55.2228 C 102.147 58.799 102.093 62.381 101.827 65.9514 Z" stroke-linecap="round" />
</g>
		<g transform="matrix(1 0 0 1 21.97 -21.64)"  >
<path style="stroke: none; stroke-width: 1; stroke-dasharray: none; stroke-linecap: butt; stroke-dashoffset: 0; stroke-linejoin: miter; stroke-miterlimit: 4; fill: rgb(255,255,255); fill-rule: nonzero; opacity: 1;" vector-effect="non-scaling-stroke"  transform=" translate(-101.47, -54.86)" d="M 112.697 54.3749 C 108.972 54.8424 105.222 55.1091 101.465 55.1736 C 97.7278 55.4387 93.9775 55.4944 90.2334 55.3405 C 93.9586 54.8746 97.7086 54.6119 101.465 54.5538 C 105.202 54.2882 108.952 54.2285 112.697 54.3749 Z" stroke-linecap="round" />
</g>
		<g transform="matrix(1 0 0 1 -3.58 -70.32)"  >
<path style="stroke: none; stroke-width: 1; stroke-dasharray: none; stroke-linecap: butt; stroke-dashoffset: 0; stroke-linejoin: miter; stroke-miterlimit: 4; fill: rgb(38,50,56); fill-rule: nonzero; opacity: 1;" vector-effect="non-scaling-stroke"  transform=" translate(-75.92, -6.18)" d="M 76.0225 12.2605 C 79.5372 12.2083 82.3421 9.44446 82.2875 6.08722 C 82.2329 2.72998 79.3395 0.0506793 75.8248 0.102833 C 72.3101 0.154987 69.5052 2.91884 69.5598 6.27609 C 69.6144 9.63333 72.5079 12.3126 76.0225 12.2605 Z" stroke-linecap="round" />
</g>
		<g transform="matrix(1 0 0 1 3.45 56.62)"  >
<path style="stroke: none; stroke-width: 1; stroke-dasharray: none; stroke-linecap: butt; stroke-dashoffset: 0; stroke-linejoin: miter; stroke-miterlimit: 4; fill: rgb(38,50,56); fill-rule: nonzero; opacity: 1;" vector-effect="non-scaling-stroke"  transform=" translate(-82.95, -133.12)" d="M 95.7244 145.307 C 95.3252 145.058 94.9568 144.766 94.6262 144.437 C 93.9398 143.853 92.9788 142.983 91.7933 141.91 C 89.4346 139.764 86.1899 136.748 82.6581 133.399 C 79.1264 130.049 75.9441 126.985 73.6728 124.732 C 72.3802 123.578 71.2059 122.309 70.166 120.941 C 70.5317 121.23 70.8816 121.536 71.2143 121.859 L 73.9973 124.422 C 76.4932 126.699 79.6131 129.679 83.1074 132.957 C 86.6017 136.236 89.834 139.371 92.1177 141.6 L 94.8009 144.27 C 95.1516 144.579 95.4617 144.927 95.7244 145.307 Z" stroke-linecap="round" />
</g>
		<g transform="matrix(1 0 0 1 57.5 4.62)"  >
<path style="stroke: none; stroke-width: 1; stroke-dasharray: none; stroke-linecap: butt; stroke-dashoffset: 0; stroke-linejoin: miter; stroke-miterlimit: 4; fill: rgb(38,50,56); fill-rule: nonzero; opacity: 1;" vector-effect="non-scaling-stroke"  transform=" translate(-137, -81.12)" d="M 149.773 93.2973 C 149.372 93.0502 149.004 92.758 148.675 92.4271 C 148.001 91.843 147.04 90.9847 145.855 89.9119 C 143.484 87.7542 140.251 84.7502 136.707 81.4005 C 133.163 78.0508 129.993 74.9752 127.734 72.7222 C 126.444 71.5703 125.27 70.3051 124.228 68.9434 C 124.6 69.2206 124.95 69.5234 125.276 69.8493 L 128.059 72.4123 L 137.169 80.9594 C 140.713 84.3091 143.895 87.3608 146.179 89.59 L 148.862 92.2602 C 149.213 92.5653 149.52 92.9142 149.773 93.2973 Z" stroke-linecap="round" />
</g>
		<g transform="matrix(1 0 0 1 24.17 24.42)"  >
<path style="stroke: none; stroke-width: 1; stroke-dasharray: none; stroke-linecap: butt; stroke-dashoffset: 0; stroke-linejoin: miter; stroke-miterlimit: 4; fill: rgb(38,50,56); fill-rule: nonzero; opacity: 1;" vector-effect="non-scaling-stroke"  transform=" translate(-103.67, -100.92)" d="M 123.946 76.3738 L 78.2979 120.684 L 83.3858 125.466 L 129.034 81.1564 L 123.946 76.3738 Z" stroke-linecap="round" />
</g>
		<g transform="matrix(1 0 0 1 -8.75 52.24)"  >
<path style="stroke: none; stroke-width: 1; stroke-dasharray: none; stroke-linecap: butt; stroke-dashoffset: 0; stroke-linejoin: miter; stroke-miterlimit: 4; fill: rgb(38,50,56); fill-rule: nonzero; opacity: 1;" vector-effect="non-scaling-stroke"  transform=" translate(-70.75, -128.74)" d="M 72.1257 128.784 C 72.1171 129.047 72.0261 129.301 71.8646 129.513 C 71.7031 129.726 71.4785 129.887 71.2199 129.976 C 70.9612 130.065 70.6805 130.078 70.4141 130.013 C 70.1477 129.948 69.9078 129.809 69.7256 129.612 C 69.5434 129.415 69.4272 129.171 69.3921 128.91 C 69.357 128.65 69.4046 128.385 69.5287 128.151 C 69.6529 127.917 69.8479 127.723 70.0884 127.596 C 70.3289 127.469 70.6039 127.413 70.8777 127.437 C 71.2275 127.464 71.5526 127.62 71.7852 127.871 C 72.0178 128.122 72.1398 128.449 72.1257 128.784 Z" stroke-linecap="round" />
</g>
		<g transform="matrix(1 0 0 1 1.67 62.73)"  >
<path style="stroke: none; stroke-width: 1; stroke-dasharray: none; stroke-linecap: butt; stroke-dashoffset: 0; stroke-linejoin: miter; stroke-miterlimit: 4; fill: rgb(38,50,56); fill-rule: nonzero; opacity: 1;" vector-effect="non-scaling-stroke"  transform=" translate(-81.17, -139.23)" d="M 82.5329 139.287 C 82.4893 139.613 82.3194 139.911 82.0569 140.123 C 81.7943 140.335 81.4582 140.445 81.1148 140.431 C 80.7714 140.418 80.4459 140.282 80.2024 140.05 C 79.9589 139.818 79.8153 139.508 79.7998 139.18 C 79.8434 138.854 80.0132 138.556 80.2758 138.345 C 80.5383 138.133 80.8745 138.023 81.2178 138.036 C 81.5612 138.05 81.8868 138.186 82.1302 138.417 C 82.3737 138.649 82.5174 138.959 82.5329 139.287 Z" stroke-linecap="round" />
</g>
		<g transform="matrix(1 0 0 1 52.38 -7.33)"  >
<path style="stroke: none; stroke-width: 1; stroke-dasharray: none; stroke-linecap: butt; stroke-dashoffset: 0; stroke-linejoin: miter; stroke-miterlimit: 4; fill: rgb(38,50,56); fill-rule: nonzero; opacity: 1;" vector-effect="non-scaling-stroke"  transform=" translate(-131.88, -69.17)" d="M 133.301 69.2885 C 133.269 69.6236 133.103 69.9343 132.839 70.1562 C 132.574 70.378 132.23 70.4942 131.878 70.4806 C 131.688 70.4888 131.498 70.4591 131.321 70.3936 C 131.143 70.328 130.982 70.2279 130.847 70.0997 C 130.713 69.9715 130.607 69.8179 130.538 69.6487 C 130.468 69.4795 130.437 69.2984 130.445 69.1168 C 130.452 68.9353 130.5 68.7572 130.583 68.594 C 130.667 68.4308 130.785 68.286 130.93 68.1688 C 131.076 68.0516 131.245 67.9645 131.427 67.913 C 131.61 67.8616 131.802 67.8469 131.99 67.87 C 132.176 67.874 132.359 67.9147 132.528 67.9896 C 132.697 68.0646 132.847 68.172 132.97 68.3053 C 133.094 68.4385 133.186 68.5947 133.243 68.7639 C 133.3 68.9331 133.32 69.1118 133.301 69.2885 Z" stroke-linecap="round" />
</g>
		<g transform="matrix(1 0 0 1 62.9 3.24)"  >
<path style="stroke: none; stroke-width: 1; stroke-dasharray: none; stroke-linecap: butt; stroke-dashoffset: 0; stroke-linejoin: miter; stroke-miterlimit: 4; fill: rgb(38,50,56); fill-rule: nonzero; opacity: 1;" vector-effect="non-scaling-stroke"  transform=" translate(-142.4, -79.74)" d="M 143.759 79.7897 C 143.751 79.9603 143.709 80.1279 143.634 80.2828 C 143.559 80.4378 143.452 80.5771 143.321 80.6927 C 143.189 80.8084 143.035 80.8982 142.867 80.957 C 142.699 81.0158 142.521 81.0424 142.342 81.0354 C 142.164 81.0283 141.988 80.9877 141.826 80.9159 C 141.664 80.8441 141.518 80.7425 141.397 80.6169 C 141.276 80.4912 141.182 80.344 141.12 80.1837 C 141.059 80.0234 141.031 79.853 141.038 79.6824 C 141.046 79.5117 141.088 79.3442 141.163 79.1892 C 141.238 79.0343 141.345 78.895 141.476 78.7793 C 141.608 78.6636 141.762 78.5738 141.93 78.515 C 142.098 78.4562 142.276 78.4296 142.455 78.4367 C 142.633 78.4437 142.809 78.4843 142.971 78.5561 C 143.133 78.6279 143.279 78.7295 143.4 78.8552 C 143.521 78.9808 143.615 79.128 143.677 79.2883 C 143.738 79.4487 143.766 79.619 143.759 79.7897 Z" stroke-linecap="round" />
</g>
		<g transform="matrix(1 0 0 1 -52.87 43.07)"  >
<path style="stroke: none; stroke-width: 1; stroke-dasharray: none; stroke-linecap: butt; stroke-dashoffset: 0; stroke-linejoin: miter; stroke-miterlimit: 4; fill: rgb(255,255,255); fill-rule: nonzero; opacity: 1;" vector-effect="non-scaling-stroke"  transform=" translate(-26.63, -119.57)" d="M 32.0032 130.191 C 31.0916 129.325 30.1291 128.509 29.1204 127.747 C 28.1844 127.044 26.9988 126.281 25.7883 125.256 C 24.4587 124.149 23.38 122.794 22.6185 121.274 C 21.2335 118.497 20.8856 115.35 21.6326 112.358 C 21.856 111.465 22.2 110.603 22.6559 109.795 C 23.0053 109.234 23.205 108.936 23.2425 108.96 C 22.7742 110.098 22.3865 111.265 22.0819 112.453 C 21.4887 115.344 21.8824 118.339 23.205 121 C 24.7026 124.171 27.6103 125.912 29.4449 127.402 C 30.5059 128.136 31.3802 129.09 32.0032 130.191 Z" stroke-linecap="round" />
</g>
		<g transform="matrix(1 0 0 1 -22.77 -14.83)"  >
<path style="stroke: none; stroke-width: 1; stroke-dasharray: none; stroke-linecap: butt; stroke-dashoffset: 0; stroke-linejoin: miter; stroke-miterlimit: 4; fill: rgb(255,255,255); fill-rule: nonzero; opacity: 1;" vector-effect="non-scaling-stroke"  transform=" translate(-56.73, -61.67)" d="M 86.2519 34.2645 C 86.3767 34.3837 73.2606 46.7574 56.9621 61.8848 C 40.6637 77.0122 27.3229 89.1951 27.1981 89.0759 C 27.0734 88.9567 40.177 76.5473 56.5004 61.4437 C 72.8238 46.3402 86.1271 34.1453 86.2519 34.2645 Z" stroke-linecap="round" />
</g>
		<g transform="matrix(1 0 0 1 -76.25 -7.82)"  >
<path style="stroke: none; stroke-width: 1; stroke-dasharray: none; stroke-linecap: butt; stroke-dashoffset: 0; stroke-linejoin: miter; stroke-miterlimit: 4; fill: rgb(255,255,255); fill-rule: nonzero; opacity: 1;" vector-effect="non-scaling-stroke"  transform=" translate(-3.25, -68.68)" d="M 5.13419 72.8174 C 5.13419 72.8889 4.48526 72.8174 3.64912 72.281 C 2.53688 71.575 1.75766 70.4816 1.47785 69.2344 C 1.19805 67.9871 1.43982 66.6847 2.15156 65.6054 C 2.70066 64.7829 3.24976 64.4729 3.29968 64.5325 C 3.3496 64.5921 2.95026 65.0213 2.56339 65.808 C 2.04918 66.8306 1.89172 67.9838 2.11412 69.0982 C 2.39625 70.2141 3.05386 71.2107 3.98607 71.9353 C 4.62253 72.5075 5.23403 72.7221 5.13419 72.8174 Z" stroke-linecap="round" />
</g>
		<g transform="matrix(1 0 0 1 -6.92 -70.25)"  >
<path style="stroke: none; stroke-width: 1; stroke-dasharray: none; stroke-linecap: butt; stroke-dashoffset: 0; stroke-linejoin: miter; stroke-miterlimit: 4; fill: rgb(255,255,255); fill-rule: nonzero; opacity: 1;" vector-effect="non-scaling-stroke"  transform=" translate(-72.58, -6.25)" d="M 74.447 10.6156 C 74.447 10.6871 73.7356 10.6156 72.8496 10.0077 C 72.2772 9.61129 71.7955 9.10742 71.4342 8.52694 C 71.0729 7.94647 70.8395 7.30162 70.7484 6.63193 C 70.6573 5.96224 70.7103 5.28182 70.9042 4.6324 C 71.0981 3.98297 71.4289 3.37823 71.8761 2.85524 C 72.575 2.05655 73.224 1.80621 73.2614 1.86582 C 73.2988 1.92542 72.7996 2.3188 72.2505 3.05789 C 71.5161 4.07027 71.2002 5.30662 71.3638 6.52838 C 71.5274 7.75014 72.159 8.87071 73.1366 9.67388 C 73.8729 10.2938 74.4844 10.5202 74.447 10.6156 Z" stroke-linecap="round" />
</g>
		<g transform="matrix(1 0 0 1 37.36 -54.6)"  >
<path style="stroke: none; stroke-width: 1; stroke-dasharray: none; stroke-linecap: butt; stroke-dashoffset: 0; stroke-linejoin: miter; stroke-miterlimit: 4; fill: rgb(255,255,255); fill-rule: nonzero; opacity: 1;" vector-effect="non-scaling-stroke"  transform=" translate(-116.86, -21.9)" d="M 121.694 20.175 C 119.952 20.3949 118.235 20.77 116.565 21.2955 C 114.977 22.0084 113.461 22.8583 112.035 23.8346 C 113.051 22.3656 114.554 21.2655 116.303 20.7114 C 117.988 19.9648 119.885 19.7761 121.694 20.175 Z" stroke-linecap="round" />
</g>
		<g transform="matrix(1 0 0 1 -18.69 61.95)"  >
<path style="stroke: none; stroke-width: 1; stroke-dasharray: none; stroke-linecap: butt; stroke-dashoffset: 0; stroke-linejoin: miter; stroke-miterlimit: 4; fill: rgb(255,255,255); fill-rule: nonzero; opacity: 1;" vector-effect="non-scaling-stroke"  transform=" translate(-60.81, -138.45)" d="M 69.8918 147.428 C 66.6311 144.66 63.5197 141.736 60.5695 138.666 C 55.5776 133.707 51.5966 129.595 51.7339 129.475 C 51.8712 129.356 56.0269 133.278 61.0437 138.237 C 66.0606 143.196 70.0166 147.309 69.8918 147.428 Z" stroke-linecap="round" />
</g>
</g>
</g>
</svg>