<?xml version="1.0" encoding="UTF-8" standalone="no" ?>
<!DOCTYPE svg PUBLIC "-//W3C//DTD SVG 1.1//EN" "http://www.w3.org/Graphics/SVG/1.1/DTD/svg11.dtd">
<svg xmlns="http://www.w3.org/2000/svg" xmlns:xlink="http://www.w3.org/1999/xlink" version="1.1" width="1080" height="1080" viewBox="0 0 1080 1080" xml:space="preserve">
<desc>Created with Fabric.js 5.2.4</desc>
<defs>
</defs>
<g transform="matrix(1 0 0 1 540 540)" id="9308444a-e6fa-489c-882a-a9b3e7e0d94f"  >
<rect style="stroke: none; stroke-width: 1; stroke-dasharray: none; stroke-linecap: butt; stroke-dashoffset: 0; stroke-linejoin: miter; stroke-miterlimit: 4; fill: rgb(255,255,255); fill-rule: nonzero; opacity: 1; visibility: hidden;" vector-effect="non-scaling-stroke"  x="-540" y="-540" rx="0" ry="0" width="1080" height="1080" />
</g>
<g transform="matrix(1 0 0 1 540 540)" id="7752e89d-3877-4f46-a588-e0d3fddb0f0f"  >
</g>
<g transform="matrix(14.4 0 0 14.4 540 540)"  >
<path style="stroke: none; stroke-width: 1; stroke-dasharray: none; stroke-linecap: butt; stroke-dashoffset: 0; stroke-linejoin: miter; stroke-miterlimit: 4; fill: rgb(224,224,224); fill-rule: evenodd; opacity: 1;"  transform=" translate(-37.76, -35.35)" d="M 8.18493 28.3238 C 8.838 25.8261 9.83243 23.4213 11.1426 21.1714 L 7.06176 15.2111 L 15.6478 6.73547 L 22.0374 10.4428 C 24.3475 9.11438 26.8318 8.0842 29.4253 7.37918 L 30.9478 0.405579 L 43.3027 0.214844 L 45.0748 7.14076 C 47.6915 7.75922 50.2098 8.7094 52.5626 9.96598 L 58.8024 6.06791 L 67.6755 14.2694 L 63.8317 20.3608 C 65.2247 22.5664 66.3033 24.9397 67.039 27.4179 L 74.3396 28.8722 L 74.5393 40.6737 L 67.2886 42.3664 C 66.6411 44.8659 65.6464 47.2714 64.3309 49.5188 L 68.4118 55.4792 L 59.8257 63.9548 L 53.4362 60.2475 C 51.1271 61.578 48.6426 62.6083 46.0482 63.3111 L 44.5257 70.2847 L 32.1708 70.4754 L 30.3987 63.5495 C 27.782 62.9311 25.2637 61.9809 22.9109 60.7243 L 16.6711 64.6224 L 7.79805 56.4209 L 11.6792 50.3175 C 10.2885 48.1108 9.21004 45.7378 8.47196 43.2605 L 1.17136 41.8061 L 0.97168 30.0047 L 8.22237 28.3119 L 8.18493 28.3238 Z M 24.4085 35.0114 C 24.4508 37.5153 25.2696 39.9509 26.7613 42.0103 C 28.253 44.0696 30.3506 45.6601 32.7888 46.5805 C 35.2269 47.501 37.896 47.71 40.4586 47.1813 C 43.0211 46.6525 45.362 45.4097 47.1849 43.61 C 49.0079 41.8102 50.2312 39.5345 50.6999 37.0707 C 51.1687 34.6068 50.862 32.0655 49.8185 29.7681 C 48.7751 27.4708 47.0418 25.5207 44.8379 24.1645 C 42.634 22.8082 40.0585 22.1068 37.4373 22.1489 C 33.9352 22.2209 30.6054 23.6144 28.1757 26.0246 C 25.746 28.4348 24.414 31.6658 24.4709 35.0114 L 24.4085 35.0114 Z" stroke-linecap="round" />
</g>
</svg>