<?xml version="1.0" encoding="UTF-8" standalone="no" ?>
<!DOCTYPE svg PUBLIC "-//W3C//DTD SVG 1.1//EN" "http://www.w3.org/Graphics/SVG/1.1/DTD/svg11.dtd">
<svg xmlns="http://www.w3.org/2000/svg" xmlns:xlink="http://www.w3.org/1999/xlink" version="1.1" width="1080" height="1080" viewBox="0 0 1080 1080" xml:space="preserve">
<desc>Created with Fabric.js 5.2.4</desc>
<defs>
</defs>
<g transform="matrix(1 0 0 1 540 540)" id="b10af563-669a-467f-939c-7fe41956392e"  >
<rect style="stroke: none; stroke-width: 1; stroke-dasharray: none; stroke-linecap: butt; stroke-dashoffset: 0; stroke-linejoin: miter; stroke-miterlimit: 4; fill: rgb(255,255,255); fill-rule: nonzero; opacity: 1; visibility: hidden;" vector-effect="non-scaling-stroke"  x="-540" y="-540" rx="0" ry="0" width="1080" height="1080" />
</g>
<g transform="matrix(1 0 0 1 540 540)" id="673b1d0e-fe50-4283-b49b-818e2315e271"  >
</g>
<g transform="matrix(2.19 0 0 2.19 540 540)"  >
<g style=""   >
		<g transform="matrix(1 0 0 1 228.4 156.2)"  >
<path style="stroke: none; stroke-width: 1; stroke-dasharray: none; stroke-linecap: butt; stroke-dashoffset: 0; stroke-linejoin: miter; stroke-miterlimit: 4; fill: rgb(235,235,235); fill-rule: nonzero; opacity: 1;" vector-effect="non-scaling-stroke"  transform=" translate(-474.9, -403.7)" d="M 463.551 395.537 C 469.167 392.772 475.769 392.414 481.996 393.392 C 485.353 393.928 488.835 394.882 491.119 397.278 C 493.402 399.674 493.827 403.906 491.206 405.968 C 489.525 407.066 487.491 407.56 485.465 407.363 C 480.586 407.363 475.17 406.492 471.276 409.294 C 469.055 410.891 467.532 413.55 464.911 414.336 C 463.582 414.638 462.185 414.515 460.936 413.985 C 459.687 413.455 458.655 412.548 457.998 411.404 C 456.733 409.069 456.456 406.359 457.224 403.834 C 457.539 402.079 458.273 400.417 459.371 398.978 C 460.468 397.539 461.899 396.362 463.551 395.537 Z" stroke-linecap="round" />
</g>
		<g transform="matrix(1 0 0 1 213.98 101.5)"  >
<path style="stroke: none; stroke-width: 1; stroke-dasharray: none; stroke-linecap: butt; stroke-dashoffset: 0; stroke-linejoin: miter; stroke-miterlimit: 4; fill: rgb(235,235,235); fill-rule: nonzero; opacity: 1;" vector-effect="non-scaling-stroke"  transform=" translate(-460.48, -349)" d="M 450.647 371.791 C 454.079 376.476 460.743 374.927 463.838 372.066 C 466.933 369.205 468.231 365.068 469.429 361.122 C 472.149 352.098 474.883 342.621 472.861 333.431 C 472.364 330.641 471.068 328.038 469.117 325.909 C 468.138 324.855 466.885 324.066 465.485 323.622 C 464.085 323.179 462.587 323.096 461.142 323.381 C 457.785 324.228 455.689 327.375 454.179 330.367 C 449.747 339.206 447.432 348.878 447.402 358.679 C 447.402 363.244 447.951 368.024 450.647 371.791 Z" stroke-linecap="round" />
</g>
		<g transform="matrix(1 0 0 1 176.74 112.1)"  >
<path style="stroke: none; stroke-width: 1; stroke-dasharray: none; stroke-linecap: butt; stroke-dashoffset: 0; stroke-linejoin: miter; stroke-miterlimit: 4; fill: rgb(235,235,235); fill-rule: nonzero; opacity: 1;" vector-effect="non-scaling-stroke"  transform=" translate(-423.24, -359.6)" d="M 441.225 378.55 C 444.969 374.319 445.655 368.156 443.995 362.863 C 442.335 357.57 438.592 353.076 434.274 349.404 C 429.177 345.075 423.241 341.742 416.802 339.593 C 414.321 338.634 411.651 338.199 408.977 338.318 C 407.641 338.39 406.343 338.774 405.199 339.437 C 404.054 340.1 403.098 341.022 402.413 342.121 C 400.579 345.458 402.326 349.5 404.235 352.849 C 407.607 358.647 411.45 364.183 415.729 369.407 C 419.148 373.627 423.079 377.752 428.296 379.695 C 433.512 381.638 438.953 381.387 441.712 377.919" stroke-linecap="round" />
</g>
		<g transform="matrix(1 0 0 1 216.68 173.43)"  >
<path style="stroke: none; stroke-width: 1; stroke-dasharray: none; stroke-linecap: butt; stroke-dashoffset: 0; stroke-linejoin: miter; stroke-miterlimit: 4; fill: rgb(224,224,224); fill-rule: nonzero; opacity: 1;" vector-effect="non-scaling-stroke"  transform=" translate(-463.18, -420.93)" d="M 450.41 442.456 C 450.593 441.758 450.698 441.042 450.722 440.322 C 450.884 438.773 451.071 436.83 451.308 434.517 C 451.614 431.66 452.072 428.819 452.681 426.006 C 453.477 422.574 454.562 419.209 455.926 415.945 C 457.257 412.69 459.064 409.632 461.292 406.861 C 463.104 404.599 465.424 402.754 468.081 401.461 C 469.886 400.613 471.819 400.038 473.809 399.756 C 474.558 399.731 475.303 399.631 476.03 399.458 C 475.28 399.373 474.522 399.373 473.772 399.458 C 471.707 399.61 469.687 400.11 467.806 400.937 C 465.009 402.198 462.557 404.063 460.643 406.384 C 458.307 409.191 456.427 412.317 455.065 415.659 C 453.687 418.97 452.61 422.387 451.845 425.875 C 451.274 428.723 450.878 431.601 450.659 434.493 C 450.472 436.961 450.397 438.964 450.36 440.334 C 450.302 441.042 450.319 441.752 450.41 442.456 Z" stroke-linecap="round" />
</g>
		<g transform="matrix(1 0 0 1 209.63 142.5)"  >
<path style="stroke: none; stroke-width: 1; stroke-dasharray: none; stroke-linecap: butt; stroke-dashoffset: 0; stroke-linejoin: miter; stroke-miterlimit: 4; fill: rgb(224,224,224); fill-rule: nonzero; opacity: 1;" vector-effect="non-scaling-stroke"  transform=" translate(-456.13, -390)" d="M 450.834 437.987 C 450.871 437.658 450.871 437.327 450.834 436.998 L 450.834 434.173 C 450.834 431.729 450.834 428.212 450.959 423.802 C 451.196 415.052 451.982 405.623 453.454 392.343 C 454.902 379.85 456.836 365.307 458.883 355.854 C 459.32 353.708 459.757 351.777 460.131 350.084 C 460.505 348.391 460.867 346.913 461.204 345.733 C 461.541 344.553 461.704 343.706 461.891 342.991 C 461.997 342.675 462.056 342.346 462.065 342.014 C 461.916 342.311 461.798 342.623 461.716 342.943 L 460.855 345.65 C 460.468 346.842 460.081 348.272 459.607 349.965 C 459.133 351.658 458.659 353.541 458.184 355.722 C 455.651 366.902 453.748 378.203 452.481 389.577 C 450.946 402.893 450.26 415.016 450.197 423.79 C 450.197 428.176 450.197 431.729 450.36 434.184 C 450.434 435.377 450.497 436.259 450.547 437.01 C 450.595 437.346 450.692 437.675 450.834 437.987 Z" stroke-linecap="round" />
</g>
		<g transform="matrix(1 0 0 1 188.04 134.41)"  >
<path style="stroke: none; stroke-width: 1; stroke-dasharray: none; stroke-linecap: butt; stroke-dashoffset: 0; stroke-linejoin: miter; stroke-miterlimit: 4; fill: rgb(224,224,224); fill-rule: nonzero; opacity: 1;" vector-effect="non-scaling-stroke"  transform=" translate(-434.54, -381.91)" d="M 450.896 414.61 C 450.975 413.626 450.975 412.638 450.896 411.654 C 450.784 409.758 450.51 407.028 449.948 403.667 C 449.265 399.75 448.348 395.873 447.203 392.056 C 445.879 387.344 444.177 382.737 442.111 378.276 C 438.568 370.054 433.494 362.513 427.135 356.02 C 426.031 354.91 424.856 353.867 423.616 352.896 C 423.067 352.455 422.593 352.026 422.106 351.704 L 420.746 350.798 C 419.921 350.205 419.049 349.675 418.137 349.213 C 418 349.404 421.819 351.597 426.661 356.473 C 432.808 363.017 437.742 370.516 441.25 378.645 C 443.274 383.081 444.988 387.641 446.379 392.294 C 447.714 396.574 448.6 400.508 449.274 403.822 C 449.948 407.136 450.273 409.853 450.522 411.737 C 450.563 412.703 450.688 413.664 450.896 414.61 Z" stroke-linecap="round" />
</g>
		<g transform="matrix(1 0 0 1 204.77 224.39)"  >
<path style="stroke: none; stroke-width: 1; stroke-dasharray: none; stroke-linecap: butt; stroke-dashoffset: 0; stroke-linejoin: miter; stroke-miterlimit: 4; fill: rgb(224,224,224); fill-rule: nonzero; opacity: 1;" vector-effect="non-scaling-stroke"  transform=" translate(-451.27, -471.89)" d="M 427.235 455.844 L 429.694 487.934 L 472.849 487.934 L 475.307 455.844 L 427.235 455.844 Z" stroke-linecap="round" />
</g>
		<g transform="matrix(1 0 0 1 205.26 202.02)"  >
<path style="stroke: none; stroke-width: 1; stroke-dasharray: none; stroke-linecap: butt; stroke-dashoffset: 0; stroke-linejoin: miter; stroke-miterlimit: 4; fill: rgb(224,224,224); fill-rule: nonzero; opacity: 1;" vector-effect="non-scaling-stroke"  transform=" translate(-451.76, -449.52)" d="M 480.449 443.195 L 423.067 443.195 L 423.067 455.843 L 480.449 455.843 L 480.449 443.195 Z" stroke-linecap="round" />
</g>
		<g transform="matrix(1 0 0 1 204.78 240.97)"  >
<path style="stroke: none; stroke-width: 1; stroke-dasharray: none; stroke-linecap: butt; stroke-dashoffset: 0; stroke-linejoin: miter; stroke-miterlimit: 4; fill: rgb(235,235,235); fill-rule: nonzero; opacity: 1;" vector-effect="non-scaling-stroke"  transform=" translate(-451.28, -488.47)" d="M 423.067 486.707 L 423.067 490.224 L 425.763 490.224 L 479.5 490.224 L 479.5 486.707 L 423.067 486.707 Z" stroke-linecap="round" />
</g>
		<g transform="matrix(1 0 0 1 205.11 245.8)"  >
<path style="stroke: none; stroke-width: 1; stroke-dasharray: none; stroke-linecap: butt; stroke-dashoffset: 0; stroke-linejoin: miter; stroke-miterlimit: 4; fill: rgb(224,224,224); fill-rule: nonzero; opacity: 1;" vector-effect="non-scaling-stroke"  transform=" translate(-451.61, -493.3)" d="M 428.408 496.386 L 425.763 490.223 L 477.453 490.223 L 474.371 496.386 L 428.408 496.386 Z" stroke-linecap="round" />
</g>
		<g transform="matrix(1 0 0 1 204.73 218.87)"  >
<path style="stroke: none; stroke-width: 1; stroke-dasharray: none; stroke-linecap: butt; stroke-dashoffset: 0; stroke-linejoin: miter; stroke-miterlimit: 4; fill: rgb(245,245,245); fill-rule: nonzero; opacity: 1;" vector-effect="non-scaling-stroke"  transform=" translate(-451.23, -466.37)" d="M 474.496 466.334 C 474.496 466.334 474.496 466.441 474.296 466.632 L 473.66 467.442 L 471.164 470.518 L 471.051 470.661 L 470.952 470.518 L 464.799 462.388 L 465.149 462.388 L 459.071 470.613 L 458.871 470.875 L 458.659 470.625 L 451.396 462.388 L 451.82 462.388 L 451.421 462.865 L 444.969 470.589 L 444.757 470.851 L 444.557 470.577 L 438.467 462.388 L 438.829 462.388 C 435.821 465.642 433.288 468.42 431.341 470.542 L 431.216 470.685 L 431.104 470.518 L 428.758 466.751 L 428.159 465.749 C 428.084 465.637 428.021 465.517 427.972 465.392 C 428.069 465.491 428.157 465.599 428.234 465.714 L 428.895 466.679 L 431.391 470.375 L 431.104 470.375 C 433.013 468.217 435.522 465.416 438.467 462.114 L 438.654 461.911 L 438.829 462.126 L 444.969 470.315 L 444.557 470.315 L 450.984 462.579 L 451.384 462.102 L 451.583 461.863 L 451.795 462.102 L 458.996 470.315 L 458.559 470.315 L 464.712 462.137 L 464.887 461.899 L 465.061 462.137 L 471.114 470.387 L 470.889 470.387 C 471.987 469.123 472.861 468.122 473.51 467.395 L 474.209 466.62 L 474.496 466.334 Z" stroke-linecap="round" />
</g>
		<g transform="matrix(1 0 0 1 205.25 208.14)"  >
<path style="stroke: none; stroke-width: 1; stroke-dasharray: none; stroke-linecap: butt; stroke-dashoffset: 0; stroke-linejoin: miter; stroke-miterlimit: 4; fill: rgb(245,245,245); fill-rule: nonzero; opacity: 1;" vector-effect="non-scaling-stroke"  transform=" translate(-451.75, -455.63)" d="M 475.905 455.629 C 475.905 455.772 465.086 455.891 451.745 455.891 C 438.404 455.891 427.597 455.772 427.597 455.629 C 427.597 455.486 438.404 455.379 451.745 455.379 C 465.086 455.379 475.905 455.486 475.905 455.629 Z" stroke-linecap="round" />
</g>
		<g transform="matrix(1 0 0 1 205.38 243.06)"  >
<path style="stroke: none; stroke-width: 1; stroke-dasharray: none; stroke-linecap: butt; stroke-dashoffset: 0; stroke-linejoin: miter; stroke-miterlimit: 4; fill: rgb(245,245,245); fill-rule: nonzero; opacity: 1;" vector-effect="non-scaling-stroke"  transform=" translate(-451.88, -490.56)" d="M 478.089 490.557 C 478.089 490.7 466.334 490.819 451.882 490.819 C 437.431 490.819 425.675 490.7 425.675 490.557 C 425.675 490.414 437.431 490.307 451.882 490.307 C 466.334 490.307 478.089 490.426 478.089 490.557 Z" stroke-linecap="round" />
</g>
		<g transform="matrix(1 0 0 1 -196.77 -107.19)"  >
<path style="stroke: none; stroke-width: 1; stroke-dasharray: none; stroke-linecap: butt; stroke-dashoffset: 0; stroke-linejoin: miter; stroke-miterlimit: 4; fill: rgb(235,235,235); fill-rule: nonzero; opacity: 1;" vector-effect="non-scaling-stroke"  transform=" translate(-49.73, -140.31)" d="M 23.543 131.196 C 24.2863 131.138 25.0335 131.138 25.7768 131.196 C 26.5006 131.196 27.3867 131.196 28.3976 131.268 C 29.4084 131.339 30.594 131.375 31.8669 131.53 C 34.8736 131.819 37.8609 132.268 40.8148 132.877 C 44.4263 133.628 47.9857 134.591 51.4725 135.762 C 54.9398 136.996 58.3241 138.433 61.6059 140.065 C 64.2776 141.415 66.8652 142.912 69.3558 144.548 C 70.4415 145.215 71.3525 145.906 72.1887 146.479 C 73.0248 147.051 73.6987 147.587 74.2478 148.04 C 74.8404 148.474 75.3993 148.948 75.9201 149.459 C 75.2745 149.112 74.6608 148.713 74.0856 148.267 C 73.5115 147.85 72.8376 147.349 71.964 146.801 C 71.0905 146.252 70.1919 145.608 69.1062 144.941 C 66.9722 143.594 64.3265 142.116 61.3314 140.614 C 58.0577 139.02 54.691 137.607 51.2478 136.382 C 47.7906 135.198 44.2656 134.203 40.69 133.402 C 37.7601 132.768 34.7987 132.274 31.817 131.924 C 30.569 131.745 29.3959 131.685 28.3726 131.578 C 27.3493 131.471 26.4882 131.435 25.7643 131.399 C 25.0195 131.387 24.2767 131.319 23.543 131.196 Z" stroke-linecap="round" />
</g>
		<g transform="matrix(1 0 0 1 -205.82 4.22)"  >
<path style="stroke: none; stroke-width: 1; stroke-dasharray: none; stroke-linecap: butt; stroke-dashoffset: 0; stroke-linejoin: miter; stroke-miterlimit: 4; fill: rgb(235,235,235); fill-rule: nonzero; opacity: 1;" vector-effect="non-scaling-stroke"  transform=" translate(-40.68, -251.72)" d="M 0.417969 264.004 C 0.620123 263.798 0.84621 263.614 1.09187 263.456 L 3.08862 262.013 C 3.94971 261.382 5.03544 260.619 6.33333 259.808 C 7.63121 258.997 9.06637 258.02 10.7511 257.078 C 12.4359 256.136 14.233 255.04 16.2671 254.015 C 18.3013 252.989 20.4728 251.917 22.794 250.832 C 27.8708 248.571 33.0889 246.613 38.4185 244.967 C 43.7698 243.385 49.2168 242.115 54.7295 241.164 C 57.2254 240.783 59.7213 240.377 61.9926 240.175 C 64.2639 239.972 66.3979 239.746 68.3448 239.638 C 70.2916 239.531 72.0887 239.483 73.6112 239.448 C 75.1337 239.412 76.494 239.448 77.5797 239.448 L 80.0756 239.531 C 80.3687 239.524 80.6616 239.548 80.9492 239.602 C 80.6588 239.631 80.3661 239.631 80.0756 239.602 L 77.5797 239.602 C 76.494 239.602 75.1587 239.602 73.6112 239.698 C 72.0637 239.793 70.3165 239.793 68.3822 239.984 C 66.4478 240.175 64.3138 240.282 62.055 240.592 C 59.7962 240.902 57.3751 241.236 54.8418 241.629 C 49.36 242.605 43.9429 243.886 38.6182 245.467 C 33.3026 247.152 28.094 249.13 23.0186 251.392 C 20.7099 252.465 18.501 253.454 16.5042 254.515 C 14.5075 255.576 12.6356 256.554 10.9633 257.495 C 9.29101 258.437 7.81841 259.367 6.50804 260.154 C 5.19768 260.941 4.09947 261.656 3.21341 262.252 L 1.14179 263.611 C 0.910558 263.758 0.668676 263.89 0.417969 264.004 Z" stroke-linecap="round" />
</g>
		<g transform="matrix(1 0 0 1 -141.64 52.35)"  >
<path style="stroke: none; stroke-width: 1; stroke-dasharray: none; stroke-linecap: butt; stroke-dashoffset: 0; stroke-linejoin: miter; stroke-miterlimit: 4; fill: rgb(235,235,235); fill-rule: nonzero; opacity: 1;" vector-effect="non-scaling-stroke"  transform=" translate(-104.86, -299.85)" d="M 90.1094 328.078 C 90.1098 327.861 90.1392 327.645 90.1967 327.434 L 90.5711 325.599 C 90.7334 324.812 90.958 323.846 91.2575 322.738 C 91.557 321.629 91.8565 320.354 92.2933 318.959 C 93.1045 316.169 94.2152 312.903 95.6254 309.315 C 97.0356 305.727 98.7827 301.876 100.842 297.919 C 102.901 293.961 105.135 290.337 107.269 287.095 C 109.403 283.852 111.512 281.063 113.371 278.75 C 114.27 277.558 115.156 276.593 115.867 275.699 C 116.579 274.805 117.29 274.065 117.864 273.458 L 119.112 272.075 C 119.424 271.765 119.586 271.61 119.611 271.622 C 119.503 271.816 119.368 271.996 119.212 272.158 C 118.9 272.552 118.488 273.028 117.964 273.613 C 117.44 274.197 116.778 275.007 116.055 275.925 C 115.331 276.843 114.47 277.844 113.559 279.024 C 111.762 281.325 109.74 284.162 107.606 287.369 C 105.472 290.576 103.325 294.235 101.254 298.169 C 99.1821 302.103 97.5098 305.941 95.9998 309.482 C 94.4897 313.022 93.4165 316.289 92.5554 319.018 C 92.0936 320.401 91.7567 321.665 91.4322 322.762 C 91.1077 323.858 90.8457 324.812 90.646 325.599 C 90.4463 326.385 90.2841 326.922 90.1468 327.399 C 90.1604 327.626 90.1478 327.854 90.1094 328.078 Z" stroke-linecap="round" />
</g>
		<g transform="matrix(1 0 0 1 -3.34 -207.99)"  >
<path style="stroke: none; stroke-width: 1; stroke-dasharray: none; stroke-linecap: butt; stroke-dashoffset: 0; stroke-linejoin: miter; stroke-miterlimit: 4; fill: rgb(235,235,235); fill-rule: nonzero; opacity: 1;" vector-effect="non-scaling-stroke"  transform=" translate(-243.16, -39.51)" d="M 259.658 0.878906 C 259.519 1.13073 259.356 1.37011 259.171 1.59415 L 257.636 3.60875 C 256.975 4.46704 256.176 5.52798 255.303 6.79157 C 254.429 8.05516 253.368 9.46181 252.32 11.083 C 251.272 12.7042 250.149 14.4566 248.901 16.3997 C 247.653 18.3427 246.492 20.4408 245.219 22.6461 C 242.723 27.1164 240.227 32.1827 237.943 37.5112 C 235.66 42.8398 233.8 48.1683 232.29 53.0081 C 231.591 55.3923 230.88 57.7764 230.356 59.934 C 229.832 62.0917 229.332 64.154 228.921 66.0255 C 228.509 67.8971 228.209 69.6017 227.922 71.0799 C 227.635 72.5581 227.423 73.8693 227.273 74.9303 C 227.124 75.9912 226.974 76.7422 226.874 77.3144 C 226.844 77.5983 226.781 77.8781 226.687 78.1489 C 226.659 77.8634 226.659 77.5761 226.687 77.2906 C 226.762 76.6707 226.849 75.8601 226.974 74.9064 C 227.099 73.9528 227.248 72.5223 227.523 71.0441 C 227.797 69.566 228.01 67.8255 228.421 65.954 C 228.833 64.0824 229.22 62.0082 229.782 59.8268 C 230.343 57.6453 231.03 55.3088 231.666 52.8651 C 233.151 48.0014 234.998 42.7086 237.282 37.2847 C 239.566 31.8608 242.149 26.8541 244.645 22.3958 C 245.893 20.1785 247.141 18.0686 248.389 16.1493 C 249.637 14.2301 250.785 12.4539 251.883 10.8565 C 252.981 9.25916 254.042 7.85252 254.953 6.61277 C 255.864 5.37301 256.688 4.31207 257.449 3.47762 C 258.21 2.64317 258.635 2.0233 259.047 1.53455 C 259.22 1.29182 259.426 1.07145 259.658 0.878906 Z" stroke-linecap="round" />
</g>
		<g transform="matrix(1 0 0 1 96.34 -103.21)"  >
<path style="stroke: none; stroke-width: 1; stroke-dasharray: none; stroke-linecap: butt; stroke-dashoffset: 0; stroke-linejoin: miter; stroke-miterlimit: 4; fill: rgb(235,235,235); fill-rule: nonzero; opacity: 1;" vector-effect="non-scaling-stroke"  transform=" translate(-342.84, -144.29)" d="M 372.013 124.723 C 371.769 124.792 371.518 124.836 371.264 124.854 L 369.105 125.128 L 367.545 125.307 C 366.971 125.391 366.36 125.522 365.711 125.629 C 364.388 125.891 362.878 126.094 361.256 126.547 L 358.76 127.179 C 357.861 127.405 356.963 127.727 356.027 128.013 C 354.117 128.562 352.17 129.372 350.111 130.171 C 341.22 133.877 333.202 139.257 326.537 145.99 C 325.052 147.575 323.592 149.053 322.419 150.579 C 321.82 151.33 321.171 152.021 320.659 152.737 L 319.112 154.835 C 318.113 156.134 317.402 157.433 316.703 158.518 C 316.366 159.079 316.029 159.579 315.755 160.068 L 315.056 161.403 L 314.058 163.251 C 313.953 163.477 313.819 163.689 313.658 163.883 C 313.727 163.648 313.819 163.421 313.933 163.203 C 314.17 162.702 314.457 162.011 314.831 161.296 L 315.48 159.925 C 315.742 159.436 316.067 158.924 316.391 158.351 C 317.102 157.059 317.881 155.802 318.725 154.584 L 320.198 152.463 C 320.709 151.723 321.333 151.02 321.932 150.257 C 323.105 148.708 324.553 147.206 326.038 145.596 C 332.711 138.754 340.809 133.321 349.812 129.646 C 351.896 128.86 353.868 128.061 355.79 127.524 C 356.75 127.25 357.661 126.928 358.56 126.714 L 361.143 126.118 C 362.629 125.768 364.133 125.493 365.648 125.295 C 366.31 125.188 366.896 125.081 367.508 125.021 L 369.08 124.89 L 371.252 124.735 C 371.504 124.697 371.76 124.693 372.013 124.723 Z" stroke-linecap="round" />
</g>
		<g transform="matrix(1 0 0 1 153.26 -58.43)"  >
<path style="stroke: none; stroke-width: 1; stroke-dasharray: none; stroke-linecap: butt; stroke-dashoffset: 0; stroke-linejoin: miter; stroke-miterlimit: 4; fill: rgb(235,235,235); fill-rule: nonzero; opacity: 1;" vector-effect="non-scaling-stroke"  transform=" translate(-399.76, -189.07)" d="M 463.776 195.662 L 463.451 195.567 L 462.515 195.269 L 458.934 194.077 L 456.35 193.171 C 455.402 192.861 454.354 192.563 453.23 192.217 C 450.997 191.55 448.476 190.703 445.605 190.012 L 441.138 188.82 C 439.578 188.414 437.93 188.104 436.246 187.723 C 432.876 186.924 429.207 186.34 425.376 185.673 C 408.646 183.005 391.615 182.507 374.746 184.195 C 370.877 184.636 367.183 185.005 363.764 185.601 C 362.054 185.887 360.394 186.102 358.772 186.412 L 354.242 187.306 C 351.334 187.83 348.763 188.498 346.479 189.07 C 345.344 189.344 344.283 189.583 343.322 189.833 L 340.676 190.584 L 337.032 191.609 L 336.071 191.86 C 335.96 191.874 335.846 191.874 335.734 191.86 L 336.046 191.74 L 336.982 191.43 L 340.601 190.238 L 343.235 189.44 C 344.196 189.165 345.256 188.903 346.392 188.605 C 348.663 188.045 351.234 187.318 354.142 186.757 L 358.684 185.816 C 360.257 185.494 361.929 185.267 363.676 184.981 C 367.108 184.349 370.802 183.968 374.683 183.503 C 391.605 181.748 408.699 182.25 425.476 184.993 C 429.319 185.685 432.963 186.281 436.358 187.103 C 438.055 187.497 439.702 187.818 441.262 188.295 L 445.73 189.487 C 448.6 190.214 451.109 191.097 453.343 191.788 C 454.466 192.146 455.502 192.467 456.45 192.801 L 459.021 193.755 L 462.565 195.09 L 463.476 195.46 C 463.676 195.603 463.788 195.65 463.776 195.662 Z" stroke-linecap="round" />
</g>
</g>
</g>
</svg>